<!DOCTYPE svg PUBLIC "-//W3C//DTD SVG 20010904//EN" "http://www.w3.org/TR/2001/REC-SVG-20010904/DTD/svg10.dtd">
<svg version="1.0" xmlns="http://www.w3.org/2000/svg" width="600px" height="600px" viewBox="0 0 6000 6000" preserveAspectRatio="xMidYMid meet">
<g id="layer101" fill="#171515" stroke="none">
 <path d="M0 3000 l0 -3000 3000 0 3000 0 0 3000 0 3000 -3000 0 -3000 0 0 -3000z"/>
 </g>
<g id="layer102" fill="#ffffff" stroke="none">
 <path d="M0 3000 l0 -3000 3000 0 3000 0 0 3000 0 3000 -3000 0 -3000 0 0 -3000z m2456 1854 c46 -12 54 -48 54 -253 l0 -191 -47 8 c-27 4 -104 7 -173 6 -154 0 -191 -13 -339 -113 -25 -17 -52 -60 -101 -156 -16 -33 -41 -81 -55 -107 -23 -43 -98 -116 -188 -182 -75 -55 -21 -102 91 -78 93 20 170 78 262 201 113 151 197 201 335 201 68 -1 133 -13 186 -36 32 -14 38 -22 49 -69 7 -30 32 -87 55 -127 24 -40 41 -76 38 -80 -2 -5 -29 -8 -60 -8 -72 0 -269 -52 -308 -81 -6 -4 -34 -17 -63 -28 -57 -23 -160 -94 -169 -117 -3 -8 -10 -14 -17 -14 -19 0 -100 -110 -143 -195 -62 -122 -85 -224 -99 -435 -7 -102 13 -256 43 -340 18 -49 81 -155 124 -209 27 -33 27 -34 11 -75 -12 -30 -16 -77 -16 -176 -1 -123 1 -142 28 -219 l29 -84 61 6 c33 3 87 15 118 26 83 28 245 108 301 148 l48 34 52 -15 c241 -69 590 -72 840 -6 l78 21 47 -34 c54 -38 219 -120 302 -149 30 -10 83 -22 116 -25 l61 -6 29 84 c27 77 29 96 28 219 0 100 -4 146 -16 177 l-16 41 34 40 c19 22 34 43 34 46 0 3 15 29 33 58 51 81 74 153 87 269 14 129 -1 347 -31 451 -28 96 -90 221 -144 286 -49 59 -163 156 -205 174 -14 6 -53 24 -88 40 -93 42 -228 79 -307 85 -98 6 -103 9 -76 37 26 28 56 83 84 156 19 51 21 82 26 403 l6 349 28 24 c39 33 77 31 177 -11 46 -19 88 -35 93 -35 8 0 127 -64 248 -133 31 -18 66 -42 79 -54 12 -12 38 -29 56 -38 18 -9 37 -21 41 -28 4 -7 32 -33 62 -57 59 -50 149 -141 208 -210 21 -25 48 -57 61 -70 12 -13 22 -28 22 -32 0 -5 22 -38 49 -73 27 -35 52 -73 56 -85 4 -11 24 -49 45 -83 40 -67 58 -107 112 -257 74 -201 103 -381 103 -630 0 -266 -37 -486 -110 -660 -14 -33 -25 -66 -25 -74 0 -12 -75 -161 -133 -263 -31 -54 -143 -206 -178 -242 -21 -21 -39 -43 -39 -48 0 -14 -187 -186 -211 -195 -10 -4 -19 -11 -19 -16 0 -5 -25 -27 -55 -47 -30 -21 -55 -42 -55 -47 0 -4 -6 -8 -13 -8 -8 0 -52 -25 -98 -55 -46 -30 -91 -55 -99 -55 -9 0 -20 -4 -26 -9 -18 -18 -213 -100 -271 -115 -32 -8 -103 -26 -158 -41 -284 -72 -598 -72 -880 1 -55 14 -126 32 -158 40 -58 15 -253 97 -271 115 -6 5 -17 9 -25 9 -23 0 -267 158 -310 201 -14 15 -31 28 -37 30 -19 7 -194 172 -194 183 0 6 -17 27 -39 48 -32 30 -161 202 -182 241 -15 30 -36 69 -81 151 -26 49 -48 95 -48 101 0 7 -13 45 -30 83 -159 375 -155 976 10 1357 9 22 23 58 30 80 7 22 34 77 61 121 27 45 49 87 49 92 0 6 22 39 48 74 27 35 54 73 60 85 36 67 329 358 395 392 15 8 42 27 59 43 17 15 52 38 77 50 25 12 48 24 51 28 12 15 180 100 198 100 12 0 23 4 27 9 3 5 29 17 58 26 28 10 56 21 62 26 10 10 59 12 91 3z m-111 -588 c29 -21 12 -46 -30 -46 -39 0 -55 21 -35 45 15 19 40 19 65 1z m149 -29 c14 -23 -4 -35 -44 -29 -21 3 -30 10 -30 22 0 33 55 38 74 7z m-299 -7 c0 -19 -51 -38 -65 -24 -6 6 -8 18 -4 28 8 22 69 19 69 -4z m-140 -60 c10 -17 -23 -60 -45 -60 -23 0 -28 38 -8 58 15 15 45 16 53 2z m-100 -110 c9 -15 -22 -60 -40 -60 -15 0 -22 50 -8 63 10 11 41 8 48 -3z m-75 -114 c0 -16 -27 -46 -41 -46 -13 0 -22 27 -15 45 7 19 56 20 56 1z m-92 -83 c-4 -20 -39 -25 -45 -6 -4 10 11 18 40 22 5 0 7 -7 5 -16z"/>
 </g>

</svg>