<!DOCTYPE svg PUBLIC "-//W3C//DTD SVG 20010904//EN" "http://www.w3.org/TR/2001/REC-SVG-20010904/DTD/svg10.dtd">
<svg version="1.0" xmlns="http://www.w3.org/2000/svg" width="180px" height="180px" viewBox="0 0 1800 1800" preserveAspectRatio="xMidYMid meet">
<g id="layer101" fill="#c92d5f" stroke="none">
<path d="M0 900 l0 -900 900 0 900 0 0 900 0 900 -900 0 -900 0 0 -900z"/>
</g>
<g id="layer102" fill="#9d2699" stroke="none">
<path d="M0 1411 c0 -368 1 -390 18 -395 10 -4 29 -16 41 -27 12 -12 32 -22 44 -24 33 -5 96 -30 109 -43 21 -21 -14 -14 -59 12 -25 15 -45 21 -49 15 -4 -6 -11 -6 -20 2 -13 11 -18 6 -15 -14 1 -5 -3 -6 -8 -2 -6 3 -8 12 -5 19 3 9 -5 15 -25 18 l-31 5 0 -489 0 -488 900 0 900 0 0 900 0 900 -900 0 -900 0 0 -389z m237 -553 c-2 -24 -4 -7 -4 37 0 44 2 63 4 43 2 -21 2 -57 0 -80z m1200 60 c-3 -7 -5 -2 -5 12 0 14 2 19 5 13 2 -7 2 -19 0 -25z m0 -100 c-2 -18 -4 -6 -4 27 0 33 2 48 4 33 2 -15 2 -42 0 -60z m-1047 40 c0 -16 -3 -19 -11 -11 -6 6 -8 16 -5 22 11 17 16 13 16 -11z m177 -20 c-3 -8 -6 -5 -6 6 -1 11 2 17 5 13 3 -3 4 -12 1 -19z m158 -38 c3 -5 4 -10 1 -10 -3 0 -8 5 -11 10 -3 6 -4 10 -1 10 3 0 8 -4 11 -10z m-135 -35 c0 -5 -5 -3 -10 5 -5 8 -10 20 -10 25 0 6 5 3 10 -5 5 -8 10 -19 10 -25z m155 5 c3 -5 4 -10 1 -10 -3 0 -8 5 -11 10 -3 6 -4 10 -1 10 3 0 8 -4 11 -10z m275 -44 c0 -3 -5 -8 -12 -12 -7 -4 -8 -3 -4 4 7 12 16 16 16 8z m-143 -33 c-4 -3 -10 -3 -14 0 -3 4 0 7 7 7 7 0 10 -3 7 -7z m70 0 c-4 -3 -10 -3 -14 0 -3 4 0 7 7 7 7 0 10 -3 7 -7z"/>
</g>
<g id="layer103" fill="#763bb4" stroke="none">
<path d="M0 1411 c0 -368 1 -390 18 -395 10 -4 29 -16 41 -27 12 -12 32 -22 44 -24 33 -5 96 -30 109 -43 21 -21 -14 -14 -59 12 -25 15 -45 21 -49 15 -4 -6 -11 -6 -20 2 -13 11 -18 6 -15 -14 1 -5 -3 -6 -8 -2 -6 3 -8 12 -5 19 3 9 -5 15 -25 18 l-31 5 0 -82 0 -81 68 -65 c66 -65 144 -129 156 -129 3 0 6 20 6 44 0 25 5 48 12 52 8 5 9 -4 4 -35 -8 -50 10 -159 35 -219 10 -24 15 -40 10 -37 -5 3 -17 26 -27 51 -13 34 -26 50 -56 65 -39 20 -51 33 -20 23 9 -4 -17 14 -59 40 -42 25 -88 57 -103 71 l-26 24 0 -349 0 -350 900 0 900 0 0 900 0 900 -900 0 -900 0 0 -389z m237 -553 c-2 -24 -4 -7 -4 37 0 44 2 63 4 43 2 -21 2 -57 0 -80z m1200 60 c-3 -7 -5 -2 -5 12 0 14 2 19 5 13 2 -7 2 -19 0 -25z m0 -100 c-2 -18 -4 -6 -4 27 0 33 2 48 4 33 2 -15 2 -42 0 -60z m-1047 40 c0 -16 -3 -19 -11 -11 -6 6 -8 16 -5 22 11 17 16 13 16 -11z m177 -20 c-3 -8 -6 -5 -6 6 -1 11 2 17 5 13 3 -3 4 -12 1 -19z m158 -38 c3 -5 4 -10 1 -10 -3 0 -8 5 -11 10 -3 6 -4 10 -1 10 3 0 8 -4 11 -10z m-135 -35 c0 -5 -5 -3 -10 5 -5 8 -10 20 -10 25 0 6 5 3 10 -5 5 -8 10 -19 10 -25z m155 5 c3 -5 4 -10 1 -10 -3 0 -8 5 -11 10 -3 6 -4 10 -1 10 3 0 8 -4 11 -10z m275 -44 c0 -3 -5 -8 -12 -12 -7 -4 -8 -3 -4 4 7 12 16 16 16 8z m-143 -33 c-4 -3 -10 -3 -14 0 -3 4 0 7 7 7 7 0 10 -3 7 -7z m70 0 c-4 -3 -10 -3 -14 0 -3 4 0 7 7 7 7 0 10 -3 7 -7z m-550 -150 c-4 -3 -7 0 -7 7 0 7 3 10 7 7 3 -4 3 -10 0 -14z m81 -87 c26 -11 55 -27 65 -37 29 -30 93 -41 282 -49 l180 -8 -184 1 c-208 1 -296 14 -347 53 -33 26 -74 85 -74 107 0 7 7 -1 15 -18 10 -20 30 -36 63 -49z m-163 -56 c3 -5 4 -10 1 -10 -3 0 -8 5 -11 10 -3 6 -4 10 -1 10 3 0 8 -4 11 -10z m40 -50 c10 -11 16 -20 13 -20 -3 0 -13 9 -23 20 -10 11 -16 20 -13 20 3 0 13 -9 23 -20z m1055 -44 c0 -2 -7 -7 -16 -10 -8 -3 -12 -2 -9 4 6 10 25 14 25 6z m-70 -36 c-8 -5 -19 -10 -25 -10 -5 0 -3 5 5 10 8 5 20 10 25 10 6 0 3 -5 -5 -10z m-70 -20 c-14 -4 -36 -8 -50 -8 -22 0 -22 1 5 8 17 4 39 8 50 8 16 0 15 -2 -5 -8z m-125 -10 c17 -4 -55 -7 -160 -7 l-190 1 145 6 c80 3 152 6 160 7 8 0 29 -3 45 -7z"/>
</g>
<g id="layer104" fill="#e02d63" stroke="none">
<path d="M0 1411 c0 -368 1 -390 18 -395 10 -4 29 -16 41 -27 12 -12 32 -22 44 -24 33 -5 96 -30 109 -43 21 -21 -14 -14 -59 12 -25 15 -45 21 -49 15 -4 -6 -11 -6 -20 2 -13 11 -18 6 -15 -14 1 -5 -3 -6 -8 -2 -6 3 -8 12 -5 19 3 9 -5 15 -25 18 l-31 5 0 -82 0 -81 68 -65 c66 -65 144 -129 156 -129 3 0 6 20 6 44 0 25 5 48 12 52 8 5 9 -4 4 -35 -8 -50 10 -159 35 -219 10 -24 15 -40 10 -37 -5 3 -17 26 -27 51 -13 34 -26 50 -56 65 -39 20 -51 33 -20 23 9 -4 -17 14 -59 40 -42 25 -88 57 -103 71 l-26 24 0 -67 c0 -64 1 -68 34 -94 19 -16 38 -28 42 -28 4 0 21 -10 38 -23 17 -13 58 -38 91 -56 33 -19 62 -36 65 -40 11 -13 73 -43 65 -32 -4 7 15 -4 41 -25 65 -49 116 -70 205 -83 122 -18 128 -20 43 -16 -44 2 -127 11 -185 19 -57 9 -153 20 -214 25 -133 12 -196 20 -212 26 -10 3 -13 -31 -13 -150 l0 -155 900 0 c593 0 900 3 900 10 0 6 -14 10 -32 10 -37 0 -33 9 5 12 l27 2 0 883 0 883 -900 0 -900 0 0 -389z m237 -553 c-2 -24 -4 -7 -4 37 0 44 2 63 4 43 2 -21 2 -57 0 -80z m1200 60 c-3 -7 -5 -2 -5 12 0 14 2 19 5 13 2 -7 2 -19 0 -25z m0 -100 c-2 -18 -4 -6 -4 27 0 33 2 48 4 33 2 -15 2 -42 0 -60z m-1047 40 c0 -16 -3 -19 -11 -11 -6 6 -8 16 -5 22 11 17 16 13 16 -11z m177 -20 c-3 -8 -6 -5 -6 6 -1 11 2 17 5 13 3 -3 4 -12 1 -19z m158 -38 c3 -5 4 -10 1 -10 -3 0 -8 5 -11 10 -3 6 -4 10 -1 10 3 0 8 -4 11 -10z m-135 -35 c0 -5 -5 -3 -10 5 -5 8 -10 20 -10 25 0 6 5 3 10 -5 5 -8 10 -19 10 -25z m155 5 c3 -5 4 -10 1 -10 -3 0 -8 5 -11 10 -3 6 -4 10 -1 10 3 0 8 -4 11 -10z m275 -44 c0 -3 -5 -8 -12 -12 -7 -4 -8 -3 -4 4 7 12 16 16 16 8z m-143 -33 c-4 -3 -10 -3 -14 0 -3 4 0 7 7 7 7 0 10 -3 7 -7z m70 0 c-4 -3 -10 -3 -14 0 -3 4 0 7 7 7 7 0 10 -3 7 -7z m-550 -150 c-4 -3 -7 0 -7 7 0 7 3 10 7 7 3 -4 3 -10 0 -14z m81 -87 c26 -11 55 -27 65 -37 29 -30 93 -41 282 -49 l180 -8 -184 1 c-208 1 -296 14 -347 53 -33 26 -74 85 -74 107 0 7 7 -1 15 -18 10 -20 30 -36 63 -49z m-163 -56 c3 -5 4 -10 1 -10 -3 0 -8 5 -11 10 -3 6 -4 10 -1 10 3 0 8 -4 11 -10z m1095 -94 c0 -2 -7 -7 -16 -10 -8 -3 -12 -2 -9 4 6 10 25 14 25 6z m-70 -36 c-8 -5 -19 -10 -25 -10 -5 0 -3 5 5 10 8 5 20 10 25 10 6 0 3 -5 -5 -10z m-70 -20 c-14 -4 -36 -8 -50 -8 -22 0 -22 1 5 8 17 4 39 8 50 8 16 0 15 -2 -5 -8z m-125 -10 c17 -4 -55 -7 -160 -7 l-190 1 145 6 c80 3 152 6 160 7 8 0 29 -3 45 -7z m585 -216 c0 -11 -8 -14 -32 -10 -47 6 -47 8 -8 16 19 4 36 8 38 9 1 0 2 -6 2 -15z"/>
</g>
<g id="layer105" fill="#c51993" stroke="none">
<path d="M0 1411 c0 -368 1 -390 18 -395 10 -4 29 -16 41 -27 12 -12 32 -22 44 -24 33 -5 96 -30 109 -43 21 -21 -14 -14 -59 12 -25 15 -45 21 -49 15 -4 -6 -11 -6 -20 2 -13 11 -18 6 -15 -14 1 -5 -3 -6 -8 -2 -6 3 -8 12 -5 19 3 9 -5 15 -25 18 l-31 5 0 -82 0 -81 68 -65 c66 -65 144 -129 156 -129 3 0 6 20 6 44 0 25 5 48 12 52 8 5 9 -4 4 -35 -8 -50 10 -159 35 -219 10 -24 15 -40 10 -37 -5 3 -17 26 -27 51 -13 34 -26 50 -56 65 -39 20 -51 33 -20 23 9 -4 -17 14 -59 40 -42 25 -88 57 -103 71 l-26 24 0 -67 c0 -64 1 -68 34 -94 19 -16 38 -28 42 -28 4 0 21 -10 38 -23 17 -13 58 -38 91 -56 33 -19 62 -36 65 -40 11 -13 73 -43 65 -32 -4 7 15 -4 41 -25 65 -49 116 -70 205 -83 122 -18 128 -20 43 -16 -44 2 -127 11 -185 19 -57 9 -153 20 -214 25 -133 12 -196 20 -212 26 -10 3 -13 -31 -13 -150 l0 -155 900 0 c593 0 900 3 900 10 0 6 -14 10 -32 10 -37 0 -33 9 5 12 l27 2 0 883 0 883 -112 0 -113 0 -3 -113 c-3 -131 -14 -202 -40 -253 -17 -33 -18 -40 -4 -66 8 -16 12 -31 9 -34 -2 -3 -12 11 -21 31 -9 19 -42 61 -72 92 -31 31 -44 49 -30 39 25 -16 27 -16 32 1 3 10 12 35 20 56 22 59 36 117 43 185 l6 62 -757 0 -758 0 0 -389z m1360 -57 c0 -2 -9 0 -20 6 -11 6 -20 13 -20 16 0 2 9 0 20 -6 11 -6 20 -13 20 -16z m38 -47 c12 -18 22 -44 22 -58 0 -13 4 -39 9 -57 6 -20 6 -42 1 -55 -7 -18 -9 -13 -9 23 l-1 45 -16 -30 c-21 -41 -65 -86 -77 -78 -6 3 -7 1 -4 -5 4 -5 -13 -28 -38 -50 -43 -38 -45 -42 -41 -84 3 -23 3 -34 0 -23 -20 74 -42 126 -72 170 -20 27 -27 42 -17 33 18 -17 22 -14 96 60 42 43 84 92 93 110 9 18 20 32 24 32 4 0 17 -15 30 -33z m160 -42 c0 -16 -2 -15 -8 5 -11 34 -11 60 0 35 5 -11 8 -29 8 -40z m9 -72 c-3 -10 -5 -4 -5 12 0 17 2 24 5 18 2 -7 2 -21 0 -30z m-130 -325 c-1 -46 -3 -11 -3 77 0 88 2 125 3 83 2 -42 2 -114 0 -160z m-354 154 c15 -19 27 -48 27 -63 0 -26 -6 -29 -111 -63 -61 -20 -120 -36 -132 -36 -12 0 -29 -4 -37 -10 -9 -6 -17 -5 -22 3 -4 7 -8 8 -8 2 0 -5 -20 -10 -45 -9 -25 0 -45 -3 -45 -8 0 -5 -4 -6 -10 -3 -5 3 -9 30 -9 58 1 29 4 42 6 29 3 -16 10 -21 22 -17 9 3 43 12 75 20 58 15 190 72 234 101 23 15 23 16 5 36 -18 20 -18 21 2 8 11 -6 32 -28 48 -48z m-846 -164 c-2 -24 -4 -7 -4 37 0 44 2 63 4 43 2 -21 2 -57 0 -80z m330 75 c-4 -3 -7 0 -7 7 0 7 3 10 7 7 3 -4 3 -10 0 -14z m-98 -47 c50 -1 74 3 80 12 10 17 21 -19 20 -63 -1 -23 -3 -25 -6 -7 -4 20 -18 26 -60 25 -7 -1 -10 3 -7 8 3 5 -10 9 -28 9 -18 0 -43 3 -55 6 -19 5 -23 2 -23 -15 0 -12 -4 -19 -10 -16 -11 7 -14 48 -3 58 4 4 10 2 14 -4 3 -6 38 -12 78 -13z m778 -38 c-3 -7 -5 -2 -5 12 0 14 2 19 5 13 2 -7 2 -19 0 -25z m-147 -25 c-11 -17 -11 -17 -6 0 3 10 6 24 7 30 0 9 2 9 5 0 3 -7 0 -20 -6 -30z m-376 -19 c3 -8 2 -12 -4 -9 -6 3 -10 10 -10 16 0 14 7 11 14 -7z m-134 -39 c0 -5 -5 -3 -10 5 -5 8 -10 20 -10 25 0 6 5 3 10 -5 5 -8 10 -19 10 -25z m155 5 c3 -5 4 -10 1 -10 -3 0 -8 5 -11 10 -3 6 -4 10 -1 10 3 0 8 -4 11 -10z m325 -4 c0 -3 -5 -8 -12 -12 -7 -4 -8 -3 -4 4 7 12 16 16 16 8z m-50 -40 c0 -3 -5 -8 -12 -12 -7 -4 -8 -3 -4 4 7 12 16 16 16 8z m-143 -33 c-4 -3 -10 -3 -14 0 -3 4 0 7 7 7 7 0 10 -3 7 -7z m70 0 c-4 -3 -10 -3 -14 0 -3 4 0 7 7 7 7 0 10 -3 7 -7z m-550 -150 c-4 -3 -7 0 -7 7 0 7 3 10 7 7 3 -4 3 -10 0 -14z m81 -87 c26 -11 55 -27 65 -37 29 -30 93 -41 282 -49 l180 -8 -184 1 c-208 1 -296 14 -347 53 -33 26 -74 85 -74 107 0 7 7 -1 15 -18 10 -20 30 -36 63 -49z m-163 -56 c3 -5 4 -10 1 -10 -3 0 -8 5 -11 10 -3 6 -4 10 -1 10 3 0 8 -4 11 -10z m1095 -94 c0 -2 -7 -7 -16 -10 -8 -3 -12 -2 -9 4 6 10 25 14 25 6z m-70 -36 c-8 -5 -19 -10 -25 -10 -5 0 -3 5 5 10 8 5 20 10 25 10 6 0 3 -5 -5 -10z m-70 -20 c-14 -4 -36 -8 -50 -8 -22 0 -22 1 5 8 17 4 39 8 50 8 16 0 15 -2 -5 -8z m-125 -10 c17 -4 -55 -7 -160 -7 l-190 1 145 6 c80 3 152 6 160 7 8 0 29 -3 45 -7z m585 -216 c0 -11 -8 -14 -32 -10 -47 6 -47 8 -8 16 19 4 36 8 38 9 1 0 2 -6 2 -15z"/>
</g>
<g id="layer106" fill="#f15d29" stroke="none">
<path d="M0 1411 c0 -368 1 -390 18 -395 10 -4 29 -16 41 -27 12 -12 32 -22 44 -24 33 -5 96 -30 109 -43 21 -21 -14 -14 -59 12 -25 15 -45 21 -49 15 -4 -6 -11 -6 -20 2 -13 11 -18 6 -15 -14 1 -5 -3 -6 -8 -2 -6 3 -8 12 -5 19 3 9 -5 15 -25 18 l-31 5 0 -82 0 -81 68 -65 c66 -65 144 -129 156 -129 3 0 6 80 6 177 0 97 2 174 4 172 3 -2 5 -78 7 -169 2 -184 13 -274 40 -338 10 -24 15 -40 10 -37 -5 3 -17 26 -27 51 -13 34 -26 50 -56 65 -39 20 -51 33 -20 23 9 -4 -17 14 -59 40 -42 25 -88 57 -103 71 l-26 24 0 -67 c0 -64 1 -68 34 -94 19 -16 38 -28 42 -28 4 0 21 -10 38 -23 17 -13 58 -38 91 -56 33 -19 62 -36 65 -40 11 -13 73 -43 65 -32 -4 7 15 -4 41 -25 65 -49 116 -70 205 -83 122 -18 128 -20 43 -16 -44 2 -127 11 -185 19 -57 9 -153 20 -214 25 -133 12 -196 20 -212 26 -10 3 -13 -31 -13 -150 l0 -155 900 0 c593 0 900 3 900 10 0 6 -14 10 -32 10 -37 0 -33 9 5 12 l27 2 0 883 0 883 -112 0 -113 0 -3 -113 c-3 -131 -14 -202 -40 -253 -17 -33 -18 -40 -4 -66 8 -16 12 -31 9 -34 -2 -3 -12 11 -21 31 -9 19 -42 61 -72 92 -31 31 -44 49 -30 39 25 -16 27 -16 32 1 3 10 12 35 20 56 22 59 36 117 43 185 l6 62 -757 0 -758 0 0 -389z m1360 -57 c0 -2 -9 0 -20 6 -11 6 -20 13 -20 16 0 2 9 0 20 -6 11 -6 20 -13 20 -16z m38 -47 c12 -18 22 -44 22 -58 0 -13 4 -39 9 -57 6 -20 6 -42 1 -55 -7 -18 -9 -13 -9 23 l-1 45 -16 -30 c-21 -41 -65 -86 -77 -78 -6 3 -7 1 -4 -5 4 -5 -13 -28 -38 -50 -42 -37 -45 -42 -41 -83 2 -24 2 -35 -1 -24 -13 61 -40 125 -71 170 -20 27 -27 42 -17 33 18 -17 22 -14 96 60 42 43 84 92 93 110 9 18 20 32 24 32 4 0 17 -15 30 -33z m160 -42 c0 -16 -2 -15 -8 5 -11 34 -11 60 0 35 5 -11 8 -29 8 -40z m9 -82 c-3 -10 -5 -2 -5 17 0 19 2 27 5 18 2 -10 2 -26 0 -35z m-130 -400 c-1 -60 -3 -11 -3 107 0 118 2 167 3 108 2 -60 2 -156 0 -215z m-354 239 c15 -19 27 -48 27 -63 0 -26 -6 -29 -111 -63 -61 -20 -120 -36 -132 -36 -12 0 -29 -4 -37 -10 -9 -6 -17 -5 -22 3 -4 7 -8 8 -8 2 0 -5 -20 -10 -45 -9 -25 0 -45 -3 -45 -8 0 -5 -4 -6 -10 -3 -5 3 -9 30 -9 58 1 29 4 42 6 29 3 -16 10 -21 22 -17 9 3 43 12 75 20 58 15 190 72 234 101 23 15 23 16 5 36 -18 20 -18 21 2 8 11 -6 32 -28 48 -48z m-516 -89 c-4 -3 -7 0 -7 7 0 7 3 10 7 7 3 -4 3 -10 0 -14z m-98 -47 c50 -1 74 3 80 12 10 17 21 -19 20 -63 -1 -23 -3 -25 -6 -7 -4 20 -18 26 -60 25 -7 -1 -10 3 -7 8 3 5 -10 9 -28 9 -18 0 -43 3 -55 6 -19 5 -23 2 -23 -15 0 -12 -4 -19 -10 -16 -11 7 -14 48 -3 58 4 4 10 2 14 -4 3 -6 38 -12 78 -13z m778 -43 c-3 -10 -5 -4 -5 12 0 17 2 24 5 18 2 -7 2 -21 0 -30z m-147 -20 c-11 -17 -11 -17 -6 0 3 10 6 24 7 30 0 9 2 9 5 0 3 -7 0 -20 -6 -30z m-376 -19 c3 -8 2 -12 -4 -9 -6 3 -10 10 -10 16 0 14 7 11 14 -7z m513 -6 c-3 -8 -6 -5 -6 6 -1 11 2 17 5 13 3 -3 4 -12 1 -19z m-647 -33 c0 -5 -5 -3 -10 5 -5 8 -10 20 -10 25 0 6 5 3 10 -5 5 -8 10 -19 10 -25z m500 31 c0 -3 -5 -8 -12 -12 -7 -4 -8 -3 -4 4 7 12 16 16 16 8z m-330 -41 c13 -14 21 -25 18 -25 -2 0 -15 11 -28 25 -13 14 -21 25 -18 25 2 0 15 -11 28 -25z m280 -15 c-19 -17 -38 -30 -44 -30 -9 0 64 58 74 59 3 0 -11 -13 -30 -29z m-651 -72 l-2 -93 -8 80 c-5 44 -7 86 -4 93 11 29 15 6 14 -80z m828 75 c-4 -3 -7 0 -7 7 0 7 3 10 7 7 3 -4 3 -10 0 -14z m-592 -39 c9 -15 12 -23 6 -20 -11 7 -35 46 -28 46 3 0 12 -12 22 -26z m190 8 c-3 -3 -11 0 -18 7 -9 10 -8 11 6 5 10 -3 15 -9 12 -12z m376 -10 c-14 -26 -94 -98 -129 -116 -53 -27 -50 -17 4 14 29 16 69 49 90 74 43 50 50 55 35 28z m-246 -7 c6 -2 -12 -4 -40 -4 -27 0 -56 3 -63 8 -13 8 79 4 103 -4z m32 8 c-4 -3 -10 -3 -14 0 -3 4 0 7 7 7 7 0 10 -3 7 -7z m590 -110 c-2 -21 -4 -6 -4 32 0 39 2 55 4 38 2 -18 2 -50 0 -70z m-137 7 c-8 -34 -8 -33 -9 15 0 34 3 45 9 35 4 -9 5 -31 0 -50z m-729 23 c13 -16 12 -17 -3 -4 -10 7 -18 15 -18 17 0 8 8 3 21 -13z m509 3 c0 -2 -8 -10 -17 -17 -16 -13 -17 -12 -4 4 13 16 21 21 21 13z m111 -13 c13 -16 12 -17 -3 -4 -17 13 -22 21 -14 21 2 0 10 -8 17 -17z m-586 -13 c3 -5 4 -10 1 -10 -3 0 -8 5 -11 10 -3 6 -4 10 -1 10 3 0 8 -4 11 -10z m45 -20 c8 -5 11 -10 5 -10 -5 0 -17 5 -25 10 -8 5 -10 10 -5 10 6 0 17 -5 25 -10z m560 -60 c-7 -17 -22 -36 -34 -42 -17 -9 -15 -5 8 22 21 26 27 41 22 64 -4 28 -4 29 6 9 8 -16 7 -30 -2 -53z m-943 28 c-3 -8 -6 -5 -6 6 -1 11 2 17 5 13 3 -3 4 -12 1 -19z m591 10 c-13 -3 -50 -6 -83 -6 -33 0 -70 3 -83 6 -13 4 25 7 83 7 58 0 96 -3 83 -7z m186 -23 c5 -22 4 -26 -4 -15 -5 8 -10 24 -10 34 0 26 6 18 14 -19z m228 -42 c-29 -55 -102 -113 -143 -113 -7 0 12 12 42 28 57 28 96 75 107 127 4 18 8 23 10 13 2 -9 -6 -34 -16 -55z m153 25 c-4 -18 -14 -44 -22 -58 -8 -14 -12 -18 -9 -10 3 8 10 34 17 58 13 49 24 57 14 10z m-1077 -62 c26 -11 55 -27 65 -37 31 -33 98 -42 342 -49 l240 -7 -242 0 c-270 0 -353 11 -409 53 -33 26 -74 85 -74 107 0 7 7 -1 15 -18 10 -20 30 -36 63 -49z m742 18 c0 -2 -9 0 -20 6 -11 6 -20 13 -20 16 0 2 9 0 20 -6 11 -6 20 -13 20 -16z m53 -11 c-7 -2 -21 -2 -30 0 -10 3 -4 5 12 5 17 0 24 -2 18 -5z m238 -51 c-5 -10 -18 -25 -27 -33 -11 -9 -9 -2 6 19 26 35 36 42 21 14z m-1196 -12 c3 -5 4 -10 1 -10 -3 0 -8 5 -11 10 -3 6 -4 10 -1 10 3 0 8 -4 11 -10z m885 -30 c-20 -5 -39 -5 -44 1 -6 5 7 9 35 8 l44 -1 -35 -8z m225 -50 c-3 -5 -16 -15 -28 -21 -19 -9 -19 -8 3 10 28 23 34 26 25 11z m-85 -50 c-8 -5 -19 -10 -25 -10 -5 0 -3 5 5 10 8 5 20 10 25 10 6 0 3 -5 -5 -10z m-70 -20 c-14 -4 -36 -8 -50 -8 -22 0 -22 1 5 8 17 4 39 8 50 8 16 0 15 -2 -5 -8z m-125 -10 c17 -4 -55 -7 -160 -7 l-190 1 145 6 c80 3 152 6 160 7 8 0 29 -3 45 -7z m585 -216 c0 -11 -8 -14 -32 -10 -47 6 -47 8 -8 16 19 4 36 8 38 9 1 0 2 -6 2 -15z"/>
</g>
<g id="layer107" fill="#b43492" stroke="none">
<path d="M0 1411 c0 -368 1 -390 18 -395 10 -4 29 -16 41 -27 12 -12 32 -22 44 -24 33 -5 96 -30 109 -43 21 -21 -14 -14 -59 12 -25 15 -45 21 -49 15 -4 -6 -11 -6 -20 2 -13 11 -18 6 -15 -14 1 -5 -3 -6 -8 -2 -6 3 -8 12 -5 19 3 9 -5 15 -25 18 l-31 5 0 -82 0 -81 68 -65 c66 -65 144 -129 156 -129 3 0 6 80 6 177 0 97 2 174 4 172 3 -2 5 -78 7 -169 2 -184 13 -274 40 -338 10 -24 15 -40 10 -37 -5 3 -17 26 -27 51 -13 34 -26 50 -56 65 -39 20 -51 33 -20 23 9 -4 -17 14 -59 40 -42 25 -88 57 -103 71 l-26 24 0 -67 c0 -64 1 -68 34 -94 19 -16 38 -28 42 -28 4 0 21 -10 38 -23 17 -13 58 -38 91 -56 33 -19 62 -36 65 -40 11 -13 73 -43 65 -32 -4 7 15 -4 41 -25 65 -49 116 -70 205 -83 122 -18 128 -20 43 -16 -44 2 -127 11 -185 19 -57 9 -153 20 -214 25 -133 12 -196 20 -212 26 -10 3 -13 -31 -13 -150 l0 -155 900 0 c593 0 900 3 900 10 0 6 -14 10 -32 10 -37 0 -33 9 5 12 l27 2 0 883 0 883 -112 0 -113 0 -3 -113 c-3 -131 -14 -202 -40 -253 -17 -33 -18 -40 -4 -66 8 -16 12 -31 9 -34 -2 -3 -12 11 -21 31 -9 19 -42 61 -72 92 -31 31 -44 49 -30 39 25 -16 27 -16 32 1 3 10 12 35 20 56 22 59 36 117 43 185 l6 62 -757 0 -758 0 0 -389z m1285 144 c39 -14 39 -14 5 -8 -19 4 -53 10 -75 14 l-40 6 35 1 c19 0 53 -6 75 -13z m-45 -146 c21 -7 19 -8 -10 -4 -31 4 -38 1 -60 -32 -14 -20 -52 -63 -85 -95 -32 -32 -55 -58 -49 -58 6 0 19 -7 30 -15 11 -9 -1 -6 -31 6 -38 17 -71 22 -140 22 -79 1 -85 2 -45 9 25 5 59 7 76 4 18 -2 37 1 44 7 10 9 11 9 5 -2 -5 -9 -3 -12 6 -9 8 3 13 10 12 16 -1 5 4 16 12 22 8 7 15 10 15 6 0 -3 19 15 41 39 23 25 45 42 50 39 5 -3 6 1 3 9 -3 8 0 18 7 23 7 4 10 3 6 -4 -5 -6 2 -6 18 1 22 11 15 13 -53 18 l-77 5 100 1 c55 1 111 -3 125 -8z m146 -87 c19 -25 34 -57 34 -71 0 -14 4 -41 9 -59 6 -20 6 -42 1 -55 -7 -18 -9 -13 -9 23 l-1 45 -16 -30 c-21 -41 -65 -86 -77 -78 -6 3 -7 1 -4 -5 4 -5 -13 -28 -38 -50 -42 -37 -45 -42 -41 -83 2 -24 2 -35 -1 -24 -13 61 -40 125 -71 170 -20 27 -27 42 -17 33 18 -17 22 -14 96 60 42 43 84 93 94 112 17 33 17 34 -6 52 -17 12 -18 16 -6 12 10 -4 34 -27 53 -52z m-1115 1 c-12 -20 -14 -14 -5 12 4 9 9 14 11 11 3 -2 0 -13 -6 -23z m1287 -58 c0 -16 -2 -15 -8 5 -11 34 -11 60 0 35 5 -11 8 -29 8 -40z m-1128 41 c0 -3 -5 -8 -12 -12 -7 -4 -8 -3 -4 4 7 12 16 16 16 8z m-173 -38 c-3 -8 -6 -5 -6 6 -1 11 2 17 5 13 3 -3 4 -12 1 -19z m150 -5 c-4 -3 -7 0 -7 7 0 7 3 10 7 7 3 -4 3 -10 0 -14z m-160 -50 c-3 -10 -5 -4 -5 12 0 17 2 24 5 18 2 -7 2 -21 0 -30z m145 -70 c-2 -52 -8 -90 -13 -87 -8 5 -5 71 7 153 8 54 10 32 6 -66z m398 77 c-8 -5 -19 -10 -25 -10 -5 0 -3 5 5 10 8 5 20 10 25 10 6 0 3 -5 -5 -10z m777 -37 c-3 -10 -5 -2 -5 17 0 19 2 27 5 18 2 -10 2 -26 0 -35z m-837 9 c-31 -20 -100 -89 -123 -122 l-17 -25 14 30 c19 40 124 137 146 134 3 0 -6 -8 -20 -17z m-488 -104 c-9 -9 -12 -1 -11 33 l1 44 11 -33 c7 -24 7 -36 -1 -44z m608 15 c-8 -3 -27 -12 -42 -20 -16 -7 -28 -11 -28 -9 0 9 54 35 70 35 13 -1 13 -1 0 -6z m127 0 c-4 -3 -10 -3 -14 0 -3 4 0 7 7 7 7 0 10 -3 7 -7z m460 -320 c-1 -60 -3 -11 -3 107 0 118 2 167 3 108 2 -60 2 -156 0 -215z m-354 239 c15 -20 27 -48 27 -63 0 -26 -6 -29 -111 -63 -61 -20 -120 -36 -132 -36 -12 0 -29 -4 -37 -10 -9 -6 -17 -5 -22 3 -4 7 -8 8 -8 2 0 -5 -20 -10 -45 -9 -25 0 -45 -3 -45 -8 0 -5 -4 -6 -10 -3 -5 3 -9 32 -9 63 1 31 4 44 6 29 3 -21 9 -27 21 -22 10 2 44 12 76 20 58 15 190 72 234 101 l24 16 -24 26 -23 25 25 -18 c14 -10 38 -34 53 -53z m-313 45 c0 -2 -10 -12 -22 -23 l-23 -19 19 23 c18 21 26 27 26 19z m-183 -44 c-4 -3 -7 0 -7 7 0 7 3 10 7 7 3 -4 3 -10 0 -14z m143 -7 c0 -3 -5 -8 -12 -12 -7 -4 -8 -3 -4 4 7 12 16 16 16 8z m-163 -83 c-4 -3 -7 0 -7 7 0 7 3 10 7 7 3 -4 3 -10 0 -14z m-98 -47 c50 -1 74 3 80 12 10 17 21 -19 20 -63 -1 -23 -3 -25 -6 -7 -4 20 -18 26 -60 25 -7 -1 -10 3 -7 8 3 5 -10 9 -28 9 -18 0 -43 3 -55 6 -19 5 -23 2 -23 -15 0 -12 -4 -19 -10 -16 -11 7 -14 48 -3 58 4 4 10 2 14 -4 3 -6 38 -12 78 -13z m778 -43 c-3 -10 -5 -4 -5 12 0 17 2 24 5 18 2 -7 2 -21 0 -30z m-147 -20 c-11 -17 -11 -17 -6 0 3 10 6 24 7 30 0 9 2 9 5 0 3 -7 0 -20 -6 -30z m-376 -19 c3 -8 2 -12 -4 -9 -6 3 -10 10 -10 16 0 14 7 11 14 -7z m513 -6 c-3 -8 -6 -5 -6 6 -1 11 2 17 5 13 3 -3 4 -12 1 -19z m-647 -33 c0 -5 -5 -3 -10 5 -5 8 -10 20 -10 25 0 6 5 3 10 -5 5 -8 10 -19 10 -25z m500 31 c0 -3 -5 -8 -12 -12 -7 -4 -8 -3 -4 4 7 12 16 16 16 8z m-330 -41 c13 -14 21 -25 18 -25 -2 0 -15 11 -28 25 -13 14 -21 25 -18 25 2 0 15 -11 28 -25z m280 -15 c-19 -17 -38 -30 -44 -30 -9 0 64 58 74 59 3 0 -11 -13 -30 -29z m-651 -72 l-2 -93 -8 80 c-5 44 -7 86 -4 93 11 29 15 6 14 -80z m828 75 c-4 -3 -7 0 -7 7 0 7 3 10 7 7 3 -4 3 -10 0 -14z m-592 -39 c9 -15 12 -23 6 -20 -11 7 -35 46 -28 46 3 0 12 -12 22 -26z m190 8 c-3 -3 -11 0 -18 7 -9 10 -8 11 6 5 10 -3 15 -9 12 -12z m376 -10 c-14 -26 -94 -98 -129 -116 -53 -27 -50 -17 4 14 29 16 69 49 90 74 43 50 50 55 35 28z m-246 -7 c6 -2 -12 -4 -40 -4 -27 0 -56 3 -63 8 -13 8 79 4 103 -4z m32 8 c-4 -3 -10 -3 -14 0 -3 4 0 7 7 7 7 0 10 -3 7 -7z m590 -110 c-2 -21 -4 -6 -4 32 0 39 2 55 4 38 2 -18 2 -50 0 -70z m-137 7 c-8 -34 -8 -33 -9 15 0 34 3 45 9 35 4 -9 5 -31 0 -50z m-729 23 c13 -16 12 -17 -3 -4 -10 7 -18 15 -18 17 0 8 8 3 21 -13z m509 3 c0 -2 -8 -10 -17 -17 -16 -13 -17 -12 -4 4 13 16 21 21 21 13z m111 -13 c13 -16 12 -17 -3 -4 -17 13 -22 21 -14 21 2 0 10 -8 17 -17z m-586 -13 c3 -5 4 -10 1 -10 -3 0 -8 5 -11 10 -3 6 -4 10 -1 10 3 0 8 -4 11 -10z m45 -20 c8 -5 11 -10 5 -10 -5 0 -17 5 -25 10 -8 5 -10 10 -5 10 6 0 17 -5 25 -10z m560 -60 c-7 -17 -22 -36 -34 -42 -17 -9 -15 -5 8 22 21 26 27 41 22 64 -4 28 -4 29 6 9 8 -16 7 -30 -2 -53z m-943 28 c-3 -8 -6 -5 -6 6 -1 11 2 17 5 13 3 -3 4 -12 1 -19z m591 10 c-13 -3 -50 -6 -83 -6 -33 0 -70 3 -83 6 -13 4 25 7 83 7 58 0 96 -3 83 -7z m186 -23 c5 -22 4 -26 -4 -15 -5 8 -10 24 -10 34 0 26 6 18 14 -19z m228 -42 c-29 -55 -102 -113 -143 -113 -7 0 12 12 42 28 57 28 96 75 107 127 4 18 8 23 10 13 2 -9 -6 -34 -16 -55z m153 25 c-4 -18 -14 -44 -22 -58 -8 -14 -12 -18 -9 -10 3 8 10 34 17 58 13 49 24 57 14 10z m-1077 -62 c26 -11 55 -27 65 -37 31 -33 98 -42 342 -49 l240 -7 -242 0 c-270 0 -353 11 -409 53 -33 26 -74 85 -74 107 0 7 7 -1 15 -18 10 -20 30 -36 63 -49z m742 18 c0 -2 -9 0 -20 6 -11 6 -20 13 -20 16 0 2 9 0 20 -6 11 -6 20 -13 20 -16z m53 -11 c-7 -2 -21 -2 -30 0 -10 3 -4 5 12 5 17 0 24 -2 18 -5z m238 -51 c-5 -10 -18 -25 -27 -33 -11 -9 -9 -2 6 19 26 35 36 42 21 14z m-1196 -12 c3 -5 4 -10 1 -10 -3 0 -8 5 -11 10 -3 6 -4 10 -1 10 3 0 8 -4 11 -10z m885 -30 c-20 -5 -39 -5 -44 1 -6 5 7 9 35 8 l44 -1 -35 -8z m225 -50 c-3 -5 -16 -15 -28 -21 -19 -9 -19 -8 3 10 28 23 34 26 25 11z m-85 -50 c-8 -5 -19 -10 -25 -10 -5 0 -3 5 5 10 8 5 20 10 25 10 6 0 3 -5 -5 -10z m-70 -20 c-14 -4 -36 -8 -50 -8 -22 0 -22 1 5 8 17 4 39 8 50 8 16 0 15 -2 -5 -8z m-125 -10 c17 -4 -55 -7 -160 -7 l-190 1 145 6 c80 3 152 6 160 7 8 0 29 -3 45 -7z m585 -216 c0 -11 -8 -14 -32 -10 -47 6 -47 8 -8 16 19 4 36 8 38 9 1 0 2 -6 2 -15z"/>
</g>
<g id="layer108" fill="#734cbc" stroke="none">
<path d="M0 1411 c0 -368 1 -390 18 -395 10 -4 29 -16 41 -27 12 -12 32 -22 44 -24 33 -5 96 -30 109 -43 21 -21 -14 -14 -59 12 -25 15 -45 21 -49 15 -4 -6 -11 -6 -20 2 -13 11 -18 6 -15 -14 1 -5 -3 -6 -8 -2 -6 3 -8 12 -5 19 3 9 -5 15 -25 18 -17 3 -31 1 -31 -2 0 -10 108 -90 139 -103 14 -6 36 -22 48 -34 36 -38 43 -29 43 59 0 148 8 77 14 -127 6 -203 11 -240 39 -308 9 -21 12 -35 7 -32 -4 3 -16 26 -26 51 -13 34 -26 50 -56 65 -39 20 -51 33 -20 23 9 -4 -17 14 -59 40 -42 25 -88 57 -103 71 l-26 24 0 -67 c0 -64 1 -68 34 -94 19 -16 38 -28 42 -28 4 0 21 -10 38 -23 17 -13 58 -38 91 -56 33 -19 62 -36 65 -40 11 -13 73 -43 65 -32 -4 7 15 -4 41 -25 65 -49 116 -70 205 -83 122 -18 128 -20 43 -16 -44 2 -127 11 -185 19 -57 9 -153 20 -214 25 -133 12 -196 20 -212 26 -10 3 -13 -31 -13 -150 l0 -155 900 0 c593 0 900 3 900 10 0 6 -14 10 -32 10 -37 0 -33 9 5 12 l27 2 0 288 c0 273 -1 287 -18 273 -64 -53 -97 -75 -112 -75 -10 0 -42 -16 -71 -35 -62 -40 -60 -39 -100 -85 l-30 -35 25 36 c14 20 26 41 26 48 0 6 4 19 9 29 6 9 12 30 16 45 3 15 9 26 13 23 4 -2 7 30 6 72 l-2 77 6 -67 c4 -36 10 -69 13 -73 8 -7 88 23 111 43 10 8 24 12 33 9 8 -4 15 -2 15 3 0 6 14 22 30 37 l30 26 0 564 0 563 -112 0 -113 0 -3 -113 c-3 -131 -14 -202 -40 -253 -17 -33 -18 -40 -4 -66 8 -16 12 -31 9 -34 -2 -3 -12 11 -21 31 -9 19 -42 61 -72 92 -31 31 -44 49 -30 39 25 -16 27 -16 32 1 3 10 12 35 20 56 22 59 36 117 43 185 l6 62 -757 0 -758 0 0 -389z m1285 144 c39 -14 39 -14 5 -8 -19 4 -53 10 -75 14 l-40 6 35 1 c19 0 53 -6 75 -13z m-45 -146 c21 -7 19 -8 -10 -4 -31 4 -38 1 -60 -32 -14 -20 -52 -63 -85 -95 -32 -32 -55 -58 -49 -58 6 0 19 -7 30 -15 11 -9 -1 -6 -31 6 -38 17 -71 22 -140 22 -79 1 -85 2 -45 9 25 5 59 7 76 4 18 -2 37 1 44 7 10 9 11 9 5 -2 -5 -9 -3 -12 6 -9 8 3 13 10 12 16 -1 5 4 16 12 22 8 7 15 10 15 6 0 -3 19 15 41 39 23 25 45 42 50 39 5 -3 6 1 3 9 -3 8 0 18 7 23 7 4 10 3 6 -4 -5 -6 2 -6 18 1 22 11 15 13 -53 18 l-77 5 100 1 c55 1 111 -3 125 -8z m146 -87 c19 -25 34 -57 34 -71 0 -14 4 -41 9 -59 6 -20 6 -42 1 -55 -7 -18 -9 -13 -9 23 l-1 45 -16 -30 c-21 -41 -65 -86 -77 -78 -6 3 -7 1 -4 -5 4 -5 -13 -28 -38 -50 -42 -37 -45 -42 -41 -83 2 -24 2 -35 -1 -24 -13 61 -40 125 -71 170 -20 27 -27 42 -17 33 18 -17 22 -14 96 60 42 43 84 93 94 112 17 33 17 34 -6 52 -17 12 -18 16 -6 12 10 -4 34 -27 53 -52z m-1115 1 c-12 -20 -14 -14 -5 12 4 9 9 14 11 11 3 -2 0 -13 -6 -23z m1287 -58 c0 -16 -2 -15 -8 5 -11 34 -11 60 0 35 5 -11 8 -29 8 -40z m-1128 41 c0 -3 -5 -8 -12 -12 -7 -4 -8 -3 -4 4 7 12 16 16 16 8z m-173 -38 c-3 -8 -6 -5 -6 6 -1 11 2 17 5 13 3 -3 4 -12 1 -19z m150 -5 c-4 -3 -7 0 -7 7 0 7 3 10 7 7 3 -4 3 -10 0 -14z m-160 -50 c-3 -10 -5 -4 -5 12 0 17 2 24 5 18 2 -7 2 -21 0 -30z m145 -70 c-2 -52 -8 -90 -13 -87 -8 5 -5 71 7 153 8 54 10 32 6 -66z m398 77 c-8 -5 -19 -10 -25 -10 -5 0 -3 5 5 10 8 5 20 10 25 10 6 0 3 -5 -5 -10z m777 -37 c-3 -10 -5 -2 -5 17 0 19 2 27 5 18 2 -10 2 -26 0 -35z m-837 9 c-31 -20 -100 -89 -123 -122 l-17 -25 14 30 c19 40 124 137 146 134 3 0 -6 -8 -20 -17z m-488 -104 c-9 -9 -12 -1 -11 33 l1 44 11 -33 c7 -24 7 -36 -1 -44z m608 15 c-8 -3 -27 -12 -42 -20 -16 -7 -28 -11 -28 -9 0 9 54 35 70 35 13 -1 13 -1 0 -6z m127 0 c-4 -3 -10 -3 -14 0 -3 4 0 7 7 7 7 0 10 -3 7 -7z m460 -320 c-1 -60 -3 -11 -3 107 0 118 2 167 3 108 2 -60 2 -156 0 -215z m-354 239 c15 -20 27 -48 27 -63 0 -26 -6 -29 -111 -63 -61 -20 -120 -36 -132 -36 -12 0 -29 -4 -37 -10 -9 -6 -17 -5 -22 3 -4 7 -8 8 -8 2 0 -5 -20 -10 -45 -9 -25 0 -45 -3 -45 -8 0 -5 -4 -6 -10 -3 -5 3 -9 32 -9 63 1 31 4 44 6 29 3 -21 9 -27 21 -22 10 2 44 12 76 20 58 15 190 72 234 101 l24 16 -24 26 -23 25 25 -18 c14 -10 38 -34 53 -53z m-313 45 c0 -2 -10 -12 -22 -23 l-23 -19 19 23 c18 21 26 27 26 19z m-183 -44 c-4 -3 -7 0 -7 7 0 7 3 10 7 7 3 -4 3 -10 0 -14z m143 -7 c0 -3 -5 -8 -12 -12 -7 -4 -8 -3 -4 4 7 12 16 16 16 8z m-163 -83 c-4 -3 -7 0 -7 7 0 7 3 10 7 7 3 -4 3 -10 0 -14z m-98 -47 c50 -1 74 3 80 12 10 17 21 -19 20 -63 -1 -23 -3 -25 -6 -7 -4 20 -18 26 -60 25 -7 -1 -10 3 -7 8 3 5 -10 9 -28 9 -18 0 -43 3 -55 6 -19 5 -23 2 -23 -15 0 -12 -4 -19 -10 -16 -11 7 -14 48 -3 58 4 4 10 2 14 -4 3 -6 38 -12 78 -13z m778 -43 c-3 -10 -5 -4 -5 12 0 17 2 24 5 18 2 -7 2 -21 0 -30z m-147 -20 c-11 -17 -11 -17 -6 0 3 10 6 24 7 30 0 9 2 9 5 0 3 -7 0 -20 -6 -30z m-376 -19 c3 -8 2 -12 -4 -9 -6 3 -10 10 -10 16 0 14 7 11 14 -7z m513 -6 c-3 -8 -6 -5 -6 6 -1 11 2 17 5 13 3 -3 4 -12 1 -19z m-647 -33 c0 -5 -5 -3 -10 5 -5 8 -10 20 -10 25 0 6 5 3 10 -5 5 -8 10 -19 10 -25z m500 31 c0 -3 -5 -8 -12 -12 -7 -4 -8 -3 -4 4 7 12 16 16 16 8z m-330 -41 c13 -14 21 -25 18 -25 -2 0 -15 11 -28 25 -13 14 -21 25 -18 25 2 0 15 -11 28 -25z m280 -15 c-19 -17 -38 -30 -44 -30 -9 0 64 58 74 59 3 0 -11 -13 -30 -29z m-606 -42 c23 -15 54 -32 69 -37 15 -6 27 -14 27 -18 0 -5 17 -13 38 -20 20 -6 58 -21 85 -32 26 -11 48 -20 50 -20 1 1 19 -6 40 -14 20 -9 37 -14 37 -11 0 3 6 2 13 -3 6 -4 22 -7 34 -8 12 0 25 -3 29 -7 4 -5 17 -8 28 -8 12 0 39 -7 61 -14 21 -8 50 -12 62 -10 13 3 23 1 23 -3 0 -5 36 -8 79 -8 46 0 74 4 68 8 -12 9 -4 7 54 -14 54 -20 117 33 105 88 -5 27 -5 27 6 5 8 -16 8 -29 0 -47 -11 -23 -9 -25 11 -25 29 0 54 19 60 45 l5 20 1 -20 c0 -11 -10 -40 -22 -65 -28 -55 -88 -92 -172 -107 -91 -17 -564 -14 -649 3 -102 22 -154 69 -183 169 -15 50 -26 199 -16 209 5 4 9 0 11 -11 2 -10 22 -30 46 -45z m783 45 c-4 -3 -7 0 -7 7 0 7 3 10 7 7 3 -4 3 -10 0 -14z m-592 -39 c9 -15 12 -23 6 -20 -11 7 -35 46 -28 46 3 0 12 -12 22 -26z m190 8 c-3 -3 -11 0 -18 7 -9 10 -8 11 6 5 10 -3 15 -9 12 -12z m376 -10 c-14 -26 -94 -98 -129 -116 -53 -27 -50 -17 4 14 29 16 69 49 90 74 43 50 50 55 35 28z m-246 -7 c6 -2 -12 -4 -40 -4 -27 0 -56 3 -63 8 -13 8 79 4 103 -4z m32 8 c-4 -3 -10 -3 -14 0 -3 4 0 7 7 7 7 0 10 -3 7 -7z m453 -103 c-8 -34 -8 -33 -9 15 0 34 3 45 9 35 4 -9 5 -31 0 -50z m-729 23 c13 -16 12 -17 -3 -4 -10 7 -18 15 -18 17 0 8 8 3 21 -13z m509 3 c0 -2 -8 -10 -17 -17 -16 -13 -17 -12 -4 4 13 16 21 21 21 13z m111 -13 c13 -16 12 -17 -3 -4 -17 13 -22 21 -14 21 2 0 10 -8 17 -17z m-586 -13 c3 -5 4 -10 1 -10 -3 0 -8 5 -11 10 -3 6 -4 10 -1 10 3 0 8 -4 11 -10z m76 -26 c38 -12 76 -15 129 -11 60 4 68 3 40 -5 -46 -13 -156 -5 -200 15 -46 20 -36 21 31 1z m363 -39 c5 -22 4 -26 -4 -15 -5 8 -10 24 -10 34 0 26 6 18 14 -19z m-859 -135 c3 -5 4 -10 1 -10 -3 0 -8 5 -11 10 -3 6 -4 10 -1 10 3 0 8 -4 11 -10z m1110 -80 c-3 -5 -16 -15 -28 -21 -19 -9 -19 -8 3 10 28 23 34 26 25 11z m-85 -50 c-8 -5 -19 -10 -25 -10 -5 0 -3 5 5 10 8 5 20 10 25 10 6 0 3 -5 -5 -10z m-70 -20 c-14 -4 -36 -8 -50 -8 -22 0 -22 1 5 8 17 4 39 8 50 8 16 0 15 -2 -5 -8z m-125 -10 c17 -4 -55 -7 -160 -7 l-190 1 145 6 c80 3 152 6 160 7 8 0 29 -3 45 -7z m585 -216 c0 -11 -8 -14 -32 -10 -47 6 -47 8 -8 16 19 4 36 8 38 9 1 0 2 -6 2 -15z"/>
</g>
<g id="layer109" fill="#9339b2" stroke="none">
<path d="M0 1411 c0 -368 1 -390 18 -395 10 -4 29 -16 41 -27 12 -12 32 -22 44 -24 33 -5 96 -30 109 -43 21 -21 -14 -14 -59 12 -25 15 -45 21 -49 15 -4 -6 -11 -6 -20 2 -13 11 -18 6 -15 -14 1 -5 -3 -6 -8 -2 -6 3 -8 12 -5 19 3 9 -5 15 -25 18 -17 3 -31 1 -31 -2 0 -10 108 -90 139 -103 14 -6 36 -22 48 -34 36 -38 43 -29 43 59 0 148 8 77 14 -127 6 -203 11 -240 39 -308 9 -21 12 -35 7 -32 -4 3 -16 26 -26 51 -13 34 -26 50 -56 65 -39 20 -51 33 -20 23 9 -4 -17 14 -59 40 -42 25 -88 57 -103 71 l-26 24 0 -67 c0 -64 1 -68 34 -94 19 -16 38 -28 42 -28 4 0 21 -10 38 -23 17 -13 58 -38 91 -56 33 -19 62 -36 65 -40 11 -13 73 -43 65 -32 -4 7 15 -4 41 -25 27 -20 67 -44 89 -54 42 -18 148 -39 206 -41 l34 -1 -30 -8 c-16 -4 -27 -8 -24 -9 3 0 62 -13 130 -27 68 -14 156 -32 194 -40 39 -7 153 -31 255 -53 102 -23 203 -43 225 -47 22 -3 42 -7 45 -9 4 -2 29 -7 56 -10 27 -4 56 -8 65 -11 8 -2 36 0 62 5 26 4 47 5 47 0 0 -4 13 -4 29 1 16 4 32 6 35 2 3 -3 6 126 6 286 0 277 -1 291 -18 277 -64 -53 -97 -75 -112 -75 -10 0 -42 -16 -71 -35 -62 -40 -60 -39 -100 -85 l-30 -35 25 36 c14 20 26 41 26 48 0 6 4 19 9 29 6 9 12 30 16 45 3 15 9 26 13 23 4 -2 7 30 6 72 l-2 77 6 -67 c4 -36 10 -69 13 -73 8 -7 88 23 111 43 10 8 24 12 33 9 8 -4 15 -2 15 3 0 6 14 22 30 37 l30 26 0 564 0 563 -112 0 -113 0 -3 -113 c-3 -131 -14 -202 -40 -253 -17 -33 -18 -40 -4 -66 8 -16 12 -31 9 -34 -2 -3 -12 11 -21 31 -9 19 -42 61 -72 92 -31 31 -44 49 -30 39 25 -16 27 -16 32 1 3 10 12 35 20 56 22 59 36 117 43 185 l6 62 -757 0 -758 0 0 -389z m1285 144 c39 -14 39 -14 5 -8 -19 4 -53 10 -75 14 l-40 6 35 1 c19 0 53 -6 75 -13z m-45 -146 c21 -7 19 -8 -10 -4 -31 4 -38 1 -60 -32 -14 -20 -52 -63 -85 -95 -32 -32 -55 -58 -49 -58 6 0 19 -7 30 -15 11 -9 -1 -6 -31 6 -38 17 -71 22 -140 22 -79 1 -85 2 -45 9 25 5 59 7 76 4 18 -2 37 1 44 7 10 9 11 9 5 -2 -5 -9 -3 -12 6 -9 8 3 13 10 12 16 -1 5 4 16 12 22 8 7 15 10 15 6 0 -3 19 15 41 39 23 25 45 42 50 39 5 -3 6 1 3 9 -3 8 0 18 7 23 7 4 10 3 6 -4 -5 -6 2 -6 18 1 22 11 15 13 -53 18 l-77 5 100 1 c55 1 111 -3 125 -8z m146 -87 c19 -25 34 -57 34 -71 0 -14 4 -41 9 -59 6 -20 6 -42 1 -55 -7 -18 -9 -13 -9 23 l-1 45 -16 -30 c-21 -41 -65 -86 -77 -78 -6 3 -7 1 -4 -5 4 -5 -13 -28 -38 -50 -42 -37 -45 -42 -41 -83 2 -24 2 -35 -1 -24 -13 61 -40 125 -71 170 -20 27 -27 42 -17 33 18 -17 22 -14 96 60 42 43 84 93 94 112 17 33 17 34 -6 52 -17 12 -18 16 -6 12 10 -4 34 -27 53 -52z m-1115 1 c-12 -20 -14 -14 -5 12 4 9 9 14 11 11 3 -2 0 -13 -6 -23z m1287 -58 c0 -16 -2 -15 -8 5 -11 34 -11 60 0 35 5 -11 8 -29 8 -40z m-1128 41 c0 -3 -5 -8 -12 -12 -7 -4 -8 -3 -4 4 7 12 16 16 16 8z m-173 -38 c-3 -8 -6 -5 -6 6 -1 11 2 17 5 13 3 -3 4 -12 1 -19z m150 -5 c-4 -3 -7 0 -7 7 0 7 3 10 7 7 3 -4 3 -10 0 -14z m-160 -50 c-3 -10 -5 -4 -5 12 0 17 2 24 5 18 2 -7 2 -21 0 -30z m145 -70 c-2 -52 -8 -90 -13 -87 -8 5 -5 71 7 153 8 54 10 32 6 -66z m398 77 c-8 -5 -19 -10 -25 -10 -5 0 -3 5 5 10 8 5 20 10 25 10 6 0 3 -5 -5 -10z m777 -37 c-3 -10 -5 -2 -5 17 0 19 2 27 5 18 2 -10 2 -26 0 -35z m-837 9 c-31 -20 -100 -89 -123 -122 l-17 -25 14 30 c19 40 124 137 146 134 3 0 -6 -8 -20 -17z m-488 -104 c-9 -9 -12 -1 -11 33 l1 44 11 -33 c7 -24 7 -36 -1 -44z m608 15 c-8 -3 -27 -12 -42 -20 -16 -7 -28 -11 -28 -9 0 9 54 35 70 35 13 -1 13 -1 0 -6z m127 0 c-4 -3 -10 -3 -14 0 -3 4 0 7 7 7 7 0 10 -3 7 -7z m460 -320 c-1 -60 -3 -11 -3 107 0 118 2 167 3 108 2 -60 2 -156 0 -215z m-354 239 c15 -20 27 -48 27 -63 0 -26 -6 -29 -111 -63 -61 -20 -120 -36 -132 -36 -12 0 -29 -4 -37 -10 -9 -6 -17 -5 -22 3 -4 7 -8 8 -8 2 0 -5 -20 -10 -45 -9 -25 0 -45 -3 -45 -8 0 -5 -4 -6 -10 -3 -5 3 -9 32 -9 63 1 31 4 44 6 29 3 -21 9 -27 21 -22 10 2 44 12 76 20 58 15 190 72 234 101 l24 16 -24 26 -23 25 25 -18 c14 -10 38 -34 53 -53z m-313 45 c0 -2 -10 -12 -22 -23 l-23 -19 19 23 c18 21 26 27 26 19z m-183 -44 c-4 -3 -7 0 -7 7 0 7 3 10 7 7 3 -4 3 -10 0 -14z m143 -7 c0 -3 -5 -8 -12 -12 -7 -4 -8 -3 -4 4 7 12 16 16 16 8z m-163 -83 c-4 -3 -7 0 -7 7 0 7 3 10 7 7 3 -4 3 -10 0 -14z m-98 -47 c50 -1 74 3 80 12 10 17 21 -19 20 -63 -1 -23 -3 -25 -6 -7 -4 20 -18 26 -60 25 -7 -1 -10 3 -7 8 3 5 -10 9 -28 9 -18 0 -43 3 -55 6 -19 5 -23 2 -23 -15 0 -12 -4 -19 -10 -16 -11 7 -14 48 -3 58 4 4 10 2 14 -4 3 -6 38 -12 78 -13z m778 -43 c-3 -10 -5 -4 -5 12 0 17 2 24 5 18 2 -7 2 -21 0 -30z m-147 -20 c-11 -17 -11 -17 -6 0 3 10 6 24 7 30 0 9 2 9 5 0 3 -7 0 -20 -6 -30z m-376 -19 c3 -8 2 -12 -4 -9 -6 3 -10 10 -10 16 0 14 7 11 14 -7z m513 -6 c-3 -8 -6 -5 -6 6 -1 11 2 17 5 13 3 -3 4 -12 1 -19z m-647 -33 c0 -5 -5 -3 -10 5 -5 8 -10 20 -10 25 0 6 5 3 10 -5 5 -8 10 -19 10 -25z m500 31 c0 -3 -5 -8 -12 -12 -7 -4 -8 -3 -4 4 7 12 16 16 16 8z m-330 -41 c13 -14 21 -25 18 -25 -2 0 -15 11 -28 25 -13 14 -21 25 -18 25 2 0 15 -11 28 -25z m280 -15 c-19 -17 -38 -30 -44 -30 -9 0 64 58 74 59 3 0 -11 -13 -30 -29z m-606 -42 c23 -15 54 -32 69 -37 15 -6 27 -14 27 -18 0 -5 17 -13 38 -20 20 -6 58 -21 85 -32 26 -11 48 -20 50 -20 1 1 19 -6 40 -14 20 -9 37 -14 37 -11 0 3 6 2 13 -3 6 -4 22 -7 34 -8 12 0 25 -3 29 -7 4 -5 17 -8 28 -8 12 0 39 -7 61 -14 21 -8 50 -12 62 -10 13 3 23 1 23 -3 0 -5 36 -8 79 -8 46 0 74 4 68 8 -12 9 -4 7 54 -14 54 -20 117 33 105 88 -5 27 -5 27 6 5 8 -16 8 -29 0 -47 -11 -23 -9 -25 11 -25 29 0 54 19 60 45 l5 20 1 -20 c0 -11 -10 -40 -22 -65 -28 -55 -88 -92 -172 -107 -91 -17 -564 -14 -649 3 -102 22 -154 69 -183 169 -15 50 -26 199 -16 209 5 4 9 0 11 -11 2 -10 22 -30 46 -45z m783 45 c-4 -3 -7 0 -7 7 0 7 3 10 7 7 3 -4 3 -10 0 -14z m-592 -39 c9 -15 12 -23 6 -20 -11 7 -35 46 -28 46 3 0 12 -12 22 -26z m190 8 c-3 -3 -11 0 -18 7 -9 10 -8 11 6 5 10 -3 15 -9 12 -12z m376 -10 c-14 -26 -94 -98 -129 -116 -53 -27 -50 -17 4 14 29 16 69 49 90 74 43 50 50 55 35 28z m-246 -7 c6 -2 -12 -4 -40 -4 -27 0 -56 3 -63 8 -13 8 79 4 103 -4z m32 8 c-4 -3 -10 -3 -14 0 -3 4 0 7 7 7 7 0 10 -3 7 -7z m453 -103 c-8 -34 -8 -33 -9 15 0 34 3 45 9 35 4 -9 5 -31 0 -50z m-729 23 c13 -16 12 -17 -3 -4 -10 7 -18 15 -18 17 0 8 8 3 21 -13z m509 3 c0 -2 -8 -10 -17 -17 -16 -13 -17 -12 -4 4 13 16 21 21 21 13z m111 -13 c13 -16 12 -17 -3 -4 -17 13 -22 21 -14 21 2 0 10 -8 17 -17z m-586 -13 c3 -5 4 -10 1 -10 -3 0 -8 5 -11 10 -3 6 -4 10 -1 10 3 0 8 -4 11 -10z m76 -26 c38 -12 76 -15 129 -11 60 4 68 3 40 -5 -46 -13 -156 -5 -200 15 -46 20 -36 21 31 1z m363 -39 c5 -22 4 -26 -4 -15 -5 8 -10 24 -10 34 0 26 6 18 14 -19z m-859 -135 c3 -5 4 -10 1 -10 -3 0 -8 5 -11 10 -3 6 -4 10 -1 10 3 0 8 -4 11 -10z m1110 -80 c-3 -5 -16 -15 -28 -21 -19 -9 -19 -8 3 10 28 23 34 26 25 11z m-85 -50 c-8 -5 -19 -10 -25 -10 -5 0 -3 5 5 10 8 5 20 10 25 10 6 0 3 -5 -5 -10z m-70 -20 c-14 -4 -36 -8 -50 -8 -22 0 -22 1 5 8 17 4 39 8 50 8 16 0 15 -2 -5 -8z m-125 -10 c17 -4 -55 -7 -160 -7 l-190 1 145 6 c80 3 152 6 160 7 8 0 29 -3 45 -7z"/>
</g>
<g id="layer110" fill="#d93076" stroke="none">
<path d="M0 1411 c0 -368 1 -390 18 -395 10 -4 29 -16 41 -27 12 -12 32 -22 44 -24 33 -5 96 -30 109 -43 21 -21 -14 -14 -59 12 -25 15 -45 21 -49 15 -4 -6 -11 -6 -20 2 -13 11 -18 6 -15 -14 1 -5 -3 -6 -8 -2 -6 3 -8 12 -5 19 3 9 -5 15 -25 18 -17 3 -31 1 -31 -2 0 -10 108 -90 139 -103 14 -6 36 -22 48 -34 36 -38 43 -29 43 59 0 148 8 77 14 -127 3 -110 10 -216 15 -236 32 -133 134 -236 269 -271 20 -5 163 -11 317 -13 154 -3 291 -5 305 -6 l25 -1 -25 -8 c-21 -7 -22 -8 -5 -10 11 -1 29 -3 40 -6 115 -25 483 -2 583 36 l32 12 0 174 c0 164 -1 173 -18 159 -64 -53 -97 -75 -112 -75 -10 0 -42 -16 -71 -35 -62 -40 -60 -39 -100 -85 l-30 -35 25 36 c14 20 26 41 26 48 0 6 4 19 9 29 6 9 12 30 16 45 3 15 9 26 13 23 4 -2 7 30 6 72 l-2 77 6 -67 c4 -36 10 -69 13 -73 8 -7 88 23 111 43 10 8 24 12 33 9 8 -4 15 -2 15 3 0 6 14 22 30 37 l30 26 0 564 0 563 -112 0 -113 0 -3 -113 c-3 -131 -14 -202 -40 -253 -17 -33 -18 -40 -4 -66 8 -16 12 -31 9 -34 -2 -3 -12 11 -21 31 -9 19 -42 61 -72 92 -31 31 -44 49 -30 39 25 -16 27 -16 32 1 3 10 12 35 20 56 22 59 36 117 43 185 l6 62 -757 0 -758 0 0 -389z m1285 144 c39 -14 39 -14 5 -8 -19 4 -53 10 -75 14 l-40 6 35 1 c19 0 53 -6 75 -13z m-45 -146 c21 -7 19 -8 -10 -4 -31 4 -38 1 -60 -32 -14 -20 -52 -63 -85 -95 -32 -32 -55 -58 -49 -58 6 0 19 -7 30 -15 11 -9 -1 -6 -31 6 -38 17 -71 22 -140 22 -79 1 -85 2 -45 9 25 5 59 7 76 4 18 -2 37 1 44 7 10 9 11 9 5 -2 -5 -9 -3 -12 6 -9 8 3 13 10 12 16 -1 5 4 16 12 22 8 7 15 10 15 6 0 -3 19 15 41 39 23 25 45 42 50 39 5 -3 6 1 3 9 -3 8 0 18 7 23 7 4 10 3 6 -4 -5 -6 2 -6 18 1 22 11 15 13 -53 18 l-77 5 100 1 c55 1 111 -3 125 -8z m146 -87 c19 -25 34 -57 34 -71 0 -14 4 -41 9 -59 6 -20 6 -42 1 -55 -7 -18 -9 -13 -9 23 l-1 45 -16 -30 c-21 -41 -65 -86 -77 -78 -6 3 -7 1 -4 -5 4 -5 -13 -28 -38 -50 -42 -37 -45 -42 -41 -83 2 -24 2 -35 -1 -24 -13 61 -40 125 -71 170 -20 27 -27 42 -17 33 18 -17 22 -14 96 60 42 43 84 93 94 112 17 33 17 34 -6 52 -17 12 -18 16 -6 12 10 -4 34 -27 53 -52z m-1115 1 c-12 -20 -14 -14 -5 12 4 9 9 14 11 11 3 -2 0 -13 -6 -23z m1287 -58 c0 -16 -2 -15 -8 5 -11 34 -11 60 0 35 5 -11 8 -29 8 -40z m-1128 41 c0 -3 -5 -8 -12 -12 -7 -4 -8 -3 -4 4 7 12 16 16 16 8z m-173 -38 c-3 -8 -6 -5 -6 6 -1 11 2 17 5 13 3 -3 4 -12 1 -19z m150 -5 c-4 -3 -7 0 -7 7 0 7 3 10 7 7 3 -4 3 -10 0 -14z m-160 -50 c-3 -10 -5 -4 -5 12 0 17 2 24 5 18 2 -7 2 -21 0 -30z m145 -70 c-2 -52 -8 -90 -13 -87 -8 5 -5 71 7 153 8 54 10 32 6 -66z m398 77 c-8 -5 -19 -10 -25 -10 -5 0 -3 5 5 10 8 5 20 10 25 10 6 0 3 -5 -5 -10z m777 -37 c-3 -10 -5 -2 -5 17 0 19 2 27 5 18 2 -10 2 -26 0 -35z m-837 9 c-31 -20 -100 -89 -123 -122 l-17 -25 14 30 c19 40 124 137 146 134 3 0 -6 -8 -20 -17z m-488 -104 c-9 -9 -12 -1 -11 33 l1 44 11 -33 c7 -24 7 -36 -1 -44z m608 15 c-8 -3 -27 -12 -42 -20 -16 -7 -28 -11 -28 -9 0 9 54 35 70 35 13 -1 13 -1 0 -6z m127 0 c-4 -3 -10 -3 -14 0 -3 4 0 7 7 7 7 0 10 -3 7 -7z m460 -320 c-1 -60 -3 -11 -3 107 0 118 2 167 3 108 2 -60 2 -156 0 -215z m-354 239 c15 -20 27 -48 27 -63 0 -26 -6 -29 -111 -63 -61 -20 -120 -36 -132 -36 -12 0 -29 -4 -37 -10 -9 -6 -17 -5 -22 3 -4 7 -8 8 -8 2 0 -5 -20 -10 -45 -9 -25 0 -45 -3 -45 -8 0 -5 -4 -6 -10 -3 -5 3 -9 32 -9 63 1 31 4 44 6 29 3 -21 9 -27 21 -22 10 2 44 12 76 20 58 15 190 72 234 101 l24 16 -24 26 -23 25 25 -18 c14 -10 38 -34 53 -53z m-313 45 c0 -2 -10 -12 -22 -23 l-23 -19 19 23 c18 21 26 27 26 19z m-183 -44 c-4 -3 -7 0 -7 7 0 7 3 10 7 7 3 -4 3 -10 0 -14z m143 -7 c0 -3 -5 -8 -12 -12 -7 -4 -8 -3 -4 4 7 12 16 16 16 8z m-163 -83 c-4 -3 -7 0 -7 7 0 7 3 10 7 7 3 -4 3 -10 0 -14z m-98 -47 c50 -1 74 3 80 12 10 17 21 -19 20 -63 -1 -23 -3 -25 -6 -7 -4 20 -18 26 -60 25 -7 -1 -10 3 -7 8 3 5 -10 9 -28 9 -18 0 -43 3 -55 6 -19 5 -23 2 -23 -15 0 -12 -4 -19 -10 -16 -11 7 -14 48 -3 58 4 4 10 2 14 -4 3 -6 38 -12 78 -13z m778 -43 c-3 -10 -5 -4 -5 12 0 17 2 24 5 18 2 -7 2 -21 0 -30z m-147 -20 c-11 -17 -11 -17 -6 0 3 10 6 24 7 30 0 9 2 9 5 0 3 -7 0 -20 -6 -30z m-376 -19 c3 -8 2 -12 -4 -9 -6 3 -10 10 -10 16 0 14 7 11 14 -7z m513 -6 c-3 -8 -6 -5 -6 6 -1 11 2 17 5 13 3 -3 4 -12 1 -19z m-647 -33 c0 -5 -5 -3 -10 5 -5 8 -10 20 -10 25 0 6 5 3 10 -5 5 -8 10 -19 10 -25z m500 31 c0 -3 -5 -8 -12 -12 -7 -4 -8 -3 -4 4 7 12 16 16 16 8z m-330 -41 c13 -14 21 -25 18 -25 -2 0 -15 11 -28 25 -13 14 -21 25 -18 25 2 0 15 -11 28 -25z m280 -15 c-19 -17 -38 -30 -44 -30 -9 0 64 58 74 59 3 0 -11 -13 -30 -29z m-606 -42 c23 -15 54 -32 69 -37 15 -6 27 -14 27 -18 0 -5 17 -13 38 -20 20 -6 58 -21 85 -32 26 -11 48 -20 50 -20 1 1 19 -6 40 -14 20 -9 37 -14 37 -11 0 3 6 2 13 -3 6 -4 22 -7 34 -8 12 0 25 -3 29 -7 4 -5 17 -8 28 -8 12 0 39 -7 61 -14 21 -8 50 -12 62 -10 13 3 23 1 23 -3 0 -5 36 -8 79 -8 46 0 74 4 68 8 -12 9 -4 7 54 -14 54 -20 117 33 105 88 -5 27 -5 27 6 5 8 -16 8 -29 0 -47 -11 -23 -9 -25 11 -25 29 0 54 19 60 45 l5 20 1 -20 c0 -11 -10 -40 -22 -65 -28 -55 -88 -92 -172 -107 -91 -17 -564 -14 -649 3 -102 22 -154 69 -183 169 -15 50 -26 199 -16 209 5 4 9 0 11 -11 2 -10 22 -30 46 -45z m783 45 c-4 -3 -7 0 -7 7 0 7 3 10 7 7 3 -4 3 -10 0 -14z m-592 -39 c9 -15 12 -23 6 -20 -11 7 -35 46 -28 46 3 0 12 -12 22 -26z m190 8 c-3 -3 -11 0 -18 7 -9 10 -8 11 6 5 10 -3 15 -9 12 -12z m376 -10 c-14 -26 -94 -98 -129 -116 -53 -27 -50 -17 4 14 29 16 69 49 90 74 43 50 50 55 35 28z m-246 -7 c6 -2 -12 -4 -40 -4 -27 0 -56 3 -63 8 -13 8 79 4 103 -4z m32 8 c-4 -3 -10 -3 -14 0 -3 4 0 7 7 7 7 0 10 -3 7 -7z m453 -103 c-8 -34 -8 -33 -9 15 0 34 3 45 9 35 4 -9 5 -31 0 -50z m-729 23 c13 -16 12 -17 -3 -4 -10 7 -18 15 -18 17 0 8 8 3 21 -13z m509 3 c0 -2 -8 -10 -17 -17 -16 -13 -17 -12 -4 4 13 16 21 21 21 13z m111 -13 c13 -16 12 -17 -3 -4 -17 13 -22 21 -14 21 2 0 10 -8 17 -17z m-586 -13 c3 -5 4 -10 1 -10 -3 0 -8 5 -11 10 -3 6 -4 10 -1 10 3 0 8 -4 11 -10z m76 -26 c38 -12 76 -15 129 -11 60 4 68 3 40 -5 -46 -13 -156 -5 -200 15 -46 20 -36 21 31 1z m363 -39 c5 -22 4 -26 -4 -15 -5 8 -10 24 -10 34 0 26 6 18 14 -19z m251 -215 c-3 -5 -16 -15 -28 -21 -19 -9 -19 -8 3 10 28 23 34 26 25 11z m-85 -50 c-8 -5 -19 -10 -25 -10 -5 0 -3 5 5 10 8 5 20 10 25 10 6 0 3 -5 -5 -10z m-70 -20 c-14 -4 -36 -8 -50 -8 -22 0 -22 1 5 8 17 4 39 8 50 8 16 0 15 -2 -5 -8z"/>
<path d="M1260 1039 c0 -5 5 -7 10 -4 6 3 10 8 10 11 0 2 -4 4 -10 4 -5 0 -10 -5 -10 -11z"/>
<path d="M1233 1023 c4 -3 10 -3 14 0 3 4 0 7 -7 7 -7 0 -10 -3 -7 -7z"/>
</g>
<g id="layer111" fill="#e65250" stroke="none">
<path d="M0 1412 l0 -388 83 -41 c45 -22 96 -44 114 -47 27 -6 32 -4 36 16 4 21 12 -178 11 -262 -4 -227 99 -384 284 -432 20 -5 163 -11 317 -13 154 -3 291 -5 305 -6 l25 -1 -25 -8 c-21 -7 -22 -8 -5 -10 11 -1 29 -3 40 -6 115 -25 483 -2 583 36 l32 12 0 174 c0 164 -1 173 -18 159 -64 -53 -97 -75 -112 -75 -10 0 -42 -16 -71 -35 -62 -40 -60 -39 -100 -85 l-30 -35 25 36 c14 20 26 41 26 48 0 6 4 19 9 29 6 9 12 30 16 45 3 15 9 26 13 23 4 -2 7 30 6 72 l-2 77 6 -67 c4 -36 10 -69 13 -73 8 -7 88 23 111 43 10 8 24 12 33 9 8 -4 15 -2 15 3 0 6 14 22 30 37 l30 27 -1 365 c-1 259 -4 356 -11 331 -6 -19 -13 -42 -16 -50 -9 -25 -8 -35 3 -42 6 -5 3 -8 -6 -8 -12 0 -15 -7 -12 -24 3 -14 -2 -35 -11 -48 -9 -12 -16 -29 -16 -36 0 -23 -81 -153 -119 -190 -20 -20 -29 -32 -21 -27 12 7 11 4 -1 -11 -10 -10 -19 -28 -22 -39 -2 -11 -6 59 -7 155 -1 96 -3 180 -4 185 -19 100 -50 159 -120 230 -28 28 -38 42 -23 32 26 -17 28 -17 33 0 3 10 12 35 20 56 22 59 36 117 43 185 l6 62 -757 0 -758 0 0 -388z m1285 143 c39 -14 39 -14 5 -8 -19 4 -53 10 -75 14 l-40 6 35 1 c19 0 53 -6 75 -13z m-45 -146 c21 -7 19 -8 -10 -4 -31 4 -38 1 -60 -32 -14 -20 -52 -63 -85 -95 -32 -32 -55 -58 -49 -58 6 0 19 -7 30 -15 11 -9 -1 -6 -31 6 -38 17 -71 22 -140 22 -79 1 -85 2 -45 9 25 5 59 7 76 4 18 -2 37 1 44 7 10 9 11 9 5 -2 -5 -9 -3 -12 6 -9 8 3 13 10 12 16 -1 5 4 16 12 22 8 7 15 10 15 6 0 -3 19 15 41 39 23 25 45 42 50 39 5 -3 6 1 3 9 -3 8 0 18 7 23 7 4 10 3 6 -4 -5 -6 2 -6 18 1 22 11 15 13 -53 18 l-77 5 100 1 c55 1 111 -3 125 -8z m145 -85 c43 -56 53 -135 52 -409 0 -132 -2 -207 -4 -166 l-4 74 -24 -23 c-14 -13 -25 -20 -25 -16 0 4 -14 -2 -30 -14 -17 -12 -37 -19 -45 -16 -26 10 -93 -29 -137 -79 -41 -47 -121 -105 -142 -105 -6 0 12 13 39 29 105 61 163 152 172 272 7 91 -11 157 -65 234 -20 27 -27 42 -17 33 18 -17 22 -14 96 60 42 43 84 93 94 112 17 33 17 34 -6 52 -20 16 -21 18 -3 9 11 -5 33 -27 49 -47z m-1114 -1 c-12 -20 -14 -14 -5 12 4 9 9 14 11 11 3 -2 0 -13 -6 -23z m159 -17 c0 -3 -5 -8 -12 -12 -7 -4 -8 -3 -4 4 7 12 16 16 16 8z m1355 -6 c3 -5 4 -10 1 -10 -3 0 -8 5 -11 10 -3 6 -4 10 -1 10 3 0 8 -4 11 -10z m-1528 -32 c-3 -8 -6 -5 -6 6 -1 11 2 17 5 13 3 -3 4 -12 1 -19z m150 -5 c-4 -3 -7 0 -7 7 0 7 3 10 7 7 3 -4 3 -10 0 -14z m-160 -50 c-3 -10 -5 -4 -5 12 0 17 2 24 5 18 2 -7 2 -21 0 -30z m145 -70 c-2 -52 -8 -90 -13 -87 -8 5 -5 71 7 153 8 54 10 32 6 -66z m398 77 c-8 -5 -19 -10 -25 -10 -5 0 -3 5 5 10 8 5 20 10 25 10 6 0 3 -5 -5 -10z m-60 -28 c-31 -20 -100 -89 -123 -122 l-17 -25 14 30 c19 40 124 137 146 134 3 0 -6 -8 -20 -17z m-488 -104 c-9 -9 -12 -1 -11 33 l1 44 11 -33 c7 -24 7 -36 -1 -44z m608 15 c-8 -3 -27 -12 -42 -20 -16 -7 -28 -11 -28 -9 0 9 54 35 70 35 13 -1 13 -1 0 -6z m127 0 c-4 -3 -10 -3 -14 0 -3 4 0 7 7 7 7 0 10 -3 7 -7z m102 -75 c63 -77 45 -218 -36 -290 -27 -25 -99 -48 -147 -48 -60 0 -141 43 -174 92 -21 32 -27 54 -28 107 -1 36 0 53 3 38 3 -21 9 -27 21 -22 10 2 44 12 76 20 58 15 190 72 234 101 l24 16 -24 26 -23 25 25 -18 c14 -10 36 -31 49 -47z m-309 39 c0 -2 -10 -12 -22 -23 l-23 -19 19 23 c18 21 26 27 26 19z m-183 -44 c-4 -3 -7 0 -7 7 0 7 3 10 7 7 3 -4 3 -10 0 -14z m143 -7 c0 -3 -5 -8 -12 -12 -7 -4 -8 -3 -4 4 7 12 16 16 16 8z m-163 -83 c-4 -3 -7 0 -7 7 0 7 3 10 7 7 3 -4 3 -10 0 -14z m-98 -47 c53 -1 74 3 81 13 6 11 10 4 15 -25 12 -70 34 -134 56 -167 20 -31 20 -31 -12 4 -29 31 -46 39 -109 53 -41 9 -86 17 -100 18 -22 3 -25 8 -28 52 -4 57 4 88 17 67 6 -9 33 -14 80 -15z m-35 -188 c23 -15 54 -32 69 -37 15 -6 27 -14 27 -18 0 -5 17 -13 38 -20 20 -6 58 -21 85 -32 26 -11 48 -20 50 -20 1 1 19 -6 40 -14 20 -9 37 -14 37 -11 0 3 6 2 13 -3 6 -4 22 -7 34 -8 12 0 25 -3 29 -7 4 -5 17 -8 28 -8 12 0 39 -7 61 -14 21 -8 50 -12 62 -10 13 3 23 1 23 -3 0 -5 36 -8 79 -8 46 0 74 4 68 8 -12 9 -4 7 54 -14 54 -20 117 33 105 88 -5 27 -5 27 6 5 8 -16 8 -29 0 -47 -11 -23 -9 -25 11 -25 29 0 54 19 60 45 l5 20 1 -20 c0 -11 -10 -40 -22 -65 -28 -55 -88 -92 -172 -107 -91 -17 -564 -14 -649 3 -102 22 -154 69 -183 169 -15 50 -26 199 -16 209 5 4 9 0 11 -11 2 -10 22 -30 46 -45z m866 48 c0 -2 -7 -7 -16 -10 -8 -3 -12 -2 -9 4 6 10 25 14 25 6z m130 -146 c-8 -34 -8 -33 -9 15 0 34 3 45 9 35 4 -9 5 -31 0 -50z m-729 23 c13 -16 12 -17 -3 -4 -10 7 -18 15 -18 17 0 8 8 3 21 -13z m509 3 c0 -2 -8 -10 -17 -17 -16 -13 -17 -12 -4 4 13 16 21 21 21 13z m111 -13 c13 -16 12 -17 -3 -4 -17 13 -22 21 -14 21 2 0 10 -8 17 -17z m-586 -13 c3 -5 4 -10 1 -10 -3 0 -8 5 -11 10 -3 6 -4 10 -1 10 3 0 8 -4 11 -10z m76 -26 c38 -12 76 -15 129 -11 60 4 68 3 40 -5 -46 -13 -156 -5 -200 15 -46 20 -36 21 31 1z m363 -39 c5 -22 4 -26 -4 -15 -5 8 -10 24 -10 34 0 26 6 18 14 -19z m251 -215 c-3 -5 -16 -15 -28 -21 -19 -9 -19 -8 3 10 28 23 34 26 25 11z m-85 -50 c-8 -5 -19 -10 -25 -10 -5 0 -3 5 5 10 8 5 20 10 25 10 6 0 3 -5 -5 -10z m-70 -20 c-14 -4 -36 -8 -50 -8 -22 0 -22 1 5 8 17 4 39 8 50 8 16 0 15 -2 -5 -8z"/>
</g>
<g id="layer112" fill="#6958c7" stroke="none">
<path d="M0 136 l0 -136 753 1 c436 0 743 4 730 9 -53 22 -440 106 -708 154 -292 52 -420 71 -560 80 -119 9 -198 17 -207 23 -5 2 -8 -57 -8 -131z"/>
</g>
<g id="layer113" fill="#cd308c" stroke="none">
<path d="M0 1536 c0 -227 2 -267 16 -280 8 -9 20 -16 25 -16 6 0 8 -4 4 -9 -3 -5 20 -22 51 -37 31 -15 62 -33 69 -40 7 -7 24 -16 39 -20 21 -5 26 -3 27 12 0 17 1 17 9 -2 4 -12 7 -126 5 -255 -2 -129 1 -268 6 -309 23 -166 122 -282 277 -322 20 -5 163 -11 317 -13 154 -3 291 -5 305 -6 l25 -1 -25 -8 c-21 -7 -22 -8 -5 -10 11 -1 29 -3 40 -6 115 -25 483 -2 583 36 l32 12 0 174 c0 164 -1 173 -18 159 -64 -53 -97 -75 -112 -75 -10 0 -42 -16 -71 -35 -62 -40 -60 -39 -100 -85 l-30 -35 25 36 c14 20 26 41 26 48 0 6 4 19 9 29 6 9 12 30 16 45 3 15 9 26 13 23 4 -2 7 30 6 72 l-2 77 6 -67 c4 -36 10 -69 13 -73 8 -7 88 23 111 43 10 8 24 12 33 9 8 -4 15 -2 15 3 0 6 14 22 30 37 l30 27 -1 365 c-1 259 -4 356 -11 331 -6 -19 -13 -42 -16 -50 -9 -25 -8 -35 3 -42 6 -5 3 -8 -6 -8 -12 0 -15 -7 -12 -24 3 -14 -2 -35 -11 -48 -9 -12 -16 -29 -16 -36 0 -23 -81 -153 -119 -190 -20 -20 -29 -32 -21 -27 12 7 11 4 -1 -11 -10 -10 -19 -28 -22 -39 -2 -11 -6 57 -7 150 -2 200 -2 204 -29 275 -51 136 -157 214 -331 244 -14 2 0 4 30 3 l54 -2 19 50 c11 28 26 66 33 85 7 19 15 49 16 65 l3 30 -677 3 -678 2 0 -264z m1306 -143 c52 -28 99 -81 115 -130 8 -25 13 -132 14 -313 1 -151 0 -242 -2 -201 l-4 74 -24 -23 c-14 -13 -25 -20 -25 -16 0 4 -14 -2 -30 -14 -17 -12 -37 -19 -45 -16 -26 10 -93 -29 -137 -79 -41 -47 -121 -105 -142 -105 -6 0 12 13 39 29 107 62 163 152 172 276 7 110 -19 178 -96 255 -81 81 -134 103 -246 103 -79 1 -84 2 -45 9 25 5 59 7 76 4 18 -2 37 1 44 7 10 9 11 9 5 -2 -5 -9 -3 -12 6 -9 8 3 13 10 12 16 -1 5 4 16 12 22 8 7 15 10 15 6 0 -3 19 15 41 39 23 25 45 42 50 39 5 -3 6 1 3 9 -3 8 0 18 7 23 7 4 10 3 6 -4 -5 -6 2 -6 18 1 22 11 16 13 -53 18 -62 5 -52 6 48 5 107 -1 131 -5 166 -23z m-1035 -70 c-12 -20 -14 -14 -5 12 4 9 9 14 11 11 3 -2 0 -13 -6 -23z m159 -17 c0 -3 -5 -8 -12 -12 -7 -4 -8 -3 -4 4 7 12 16 16 16 8z m1355 -6 c3 -5 4 -10 1 -10 -3 0 -8 5 -11 10 -3 6 -4 10 -1 10 3 0 8 -4 11 -10z m-1528 -32 c-3 -8 -6 -5 -6 6 -1 11 2 17 5 13 3 -3 4 -12 1 -19z m150 -5 c-4 -3 -7 0 -7 7 0 7 3 10 7 7 3 -4 3 -10 0 -14z m-160 -50 c-3 -10 -5 -4 -5 12 0 17 2 24 5 18 2 -7 2 -21 0 -30z m145 -52 c-3 -57 -1 -80 9 -86 7 -5 54 -9 106 -9 78 -1 94 2 98 15 7 21 94 103 126 118 l24 12 -25 -18 c-61 -44 -94 -81 -122 -137 -54 -106 -49 -257 13 -349 20 -31 20 -31 -12 4 -29 31 -46 39 -109 53 -41 9 -86 17 -100 18 l-25 3 1 190 c0 163 7 265 18 265 1 0 1 -35 -2 -79z m398 59 c-8 -5 -19 -10 -25 -10 -5 0 -3 5 5 10 8 5 20 10 25 10 6 0 3 -5 -5 -10z m229 -133 c82 -54 121 -161 92 -249 -29 -87 -118 -148 -216 -148 -59 0 -140 43 -173 93 -40 60 -44 160 -9 219 14 24 35 52 47 63 66 60 186 70 259 22z m-585 -389 c23 -15 54 -32 69 -37 15 -6 27 -14 27 -18 0 -5 17 -13 38 -20 20 -6 58 -21 85 -32 26 -11 48 -20 50 -20 1 1 19 -6 40 -14 20 -9 37 -14 37 -11 0 3 6 2 13 -3 6 -4 22 -7 34 -8 12 0 25 -3 29 -7 4 -5 17 -8 28 -8 12 0 39 -7 61 -14 21 -8 50 -12 62 -10 13 3 23 1 23 -3 0 -5 36 -8 79 -8 46 0 74 4 68 8 -12 9 -4 7 54 -14 54 -20 117 33 105 88 -5 27 -5 27 6 5 8 -16 8 -29 0 -47 -11 -23 -9 -25 11 -25 29 0 54 19 60 45 l5 20 1 -20 c0 -11 -10 -40 -22 -65 -28 -55 -88 -92 -172 -107 -91 -17 -564 -14 -649 3 -102 22 -154 69 -183 169 -15 50 -26 199 -16 209 5 4 9 0 11 -11 2 -10 22 -30 46 -45z m866 48 c0 -2 -7 -7 -16 -10 -8 -3 -12 -2 -9 4 6 10 25 14 25 6z m130 -146 c-8 -34 -8 -33 -9 15 0 34 3 45 9 35 4 -9 5 -31 0 -50z m-729 23 c13 -16 12 -17 -3 -4 -10 7 -18 15 -18 17 0 8 8 3 21 -13z m509 3 c0 -2 -8 -10 -17 -17 -16 -13 -17 -12 -4 4 13 16 21 21 21 13z m111 -13 c13 -16 12 -17 -3 -4 -17 13 -22 21 -14 21 2 0 10 -8 17 -17z m-586 -13 c3 -5 4 -10 1 -10 -3 0 -8 5 -11 10 -3 6 -4 10 -1 10 3 0 8 -4 11 -10z m76 -26 c38 -12 76 -15 129 -11 60 4 68 3 40 -5 -46 -13 -156 -5 -200 15 -46 20 -36 21 31 1z m363 -39 c5 -22 4 -26 -4 -15 -5 8 -10 24 -10 34 0 26 6 18 14 -19z m251 -215 c-3 -5 -16 -15 -28 -21 -19 -9 -19 -8 3 10 28 23 34 26 25 11z m-85 -50 c-8 -5 -19 -10 -25 -10 -5 0 -3 5 5 10 8 5 20 10 25 10 6 0 3 -5 -5 -10z m-70 -20 c-14 -4 -36 -8 -50 -8 -22 0 -22 1 5 8 17 4 39 8 50 8 16 0 15 -2 -5 -8z"/>
<path d="M1739 1786 c6 -7 8 -22 4 -31 -4 -12 -3 -16 4 -12 14 9 36 -81 36 -143 -1 -40 0 -42 7 -15 4 17 8 72 9 123 l1 92 -36 0 c-30 0 -34 -3 -25 -14z"/>
<path d="M1751 1704 c0 -11 3 -14 6 -6 3 7 2 16 -1 19 -3 4 -6 -2 -5 -13z"/>
<path d="M1791 1424 c0 -11 3 -14 6 -6 3 7 2 16 -1 19 -3 4 -6 -2 -5 -13z"/>
<path d="M3 963 c4 -3 10 -3 14 0 3 4 0 7 -7 7 -7 0 -10 -3 -7 -7z"/>
<path d="M65 914 c26 -19 59 -40 73 -47 15 -6 37 -22 49 -34 26 -27 43 -30 43 -5 0 11 -21 27 -63 46 -34 17 -78 40 -97 53 -54 36 -57 27 -5 -13z"/>
</g>
<g id="layer114" fill="#5763d4" stroke="none">
<path d="M0 111 l0 -111 663 1 662 1 -100 24 c-108 27 -350 80 -430 94 -27 5 -108 20 -180 34 -140 26 -347 51 -512 62 l-103 6 0 -111z"/>
</g>
<g id="layer115" fill="#8d4ab8" stroke="none">
<path d="M0 1536 c0 -227 2 -267 16 -280 8 -9 20 -16 25 -16 6 0 8 -4 4 -9 -3 -5 20 -22 51 -37 31 -15 62 -33 69 -40 7 -7 24 -16 39 -20 21 -5 26 -3 27 12 0 17 1 17 9 -2 4 -12 7 -126 5 -255 -2 -129 1 -268 6 -309 23 -166 122 -282 277 -322 20 -5 163 -11 317 -13 154 -3 291 -5 305 -6 l25 -1 -25 -8 c-21 -7 -22 -8 -5 -10 11 -1 29 -3 40 -6 115 -25 483 -2 583 36 l32 12 0 174 c0 164 -1 173 -18 159 -64 -53 -97 -75 -112 -75 -10 0 -42 -16 -71 -35 -62 -40 -60 -39 -100 -85 l-30 -35 25 36 c14 20 26 42 26 50 0 8 4 19 8 25 27 30 34 128 30 454 -3 318 -5 338 -26 390 -55 138 -159 214 -332 244 -14 2 0 4 30 3 l54 -2 19 50 c11 28 26 66 33 85 7 19 15 49 16 65 l3 30 -677 3 -678 2 0 -264z m1306 -143 c52 -27 99 -81 115 -130 17 -55 24 -576 9 -672 -22 -134 -79 -195 -205 -218 -91 -17 -564 -14 -649 3 -103 22 -151 67 -186 174 -12 36 -15 108 -15 345 1 186 5 309 11 325 8 18 10 5 6 -57 -3 -59 -1 -82 9 -88 7 -5 54 -9 106 -9 78 -1 94 2 98 15 7 21 94 103 126 118 l24 12 -25 -18 c-105 -76 -151 -157 -158 -278 -5 -103 19 -173 86 -244 69 -73 145 -106 247 -106 97 0 169 29 235 95 67 67 95 138 95 240 0 73 -4 93 -28 142 -32 65 -104 135 -174 168 -39 19 -65 23 -138 23 -79 1 -84 2 -45 9 25 5 59 7 76 4 18 -2 37 1 44 7 10 9 11 9 5 -2 -5 -9 -3 -12 6 -9 8 3 13 10 12 16 -1 5 4 16 12 22 8 7 15 10 15 6 0 -3 19 15 41 39 23 25 45 42 50 39 5 -3 6 1 3 9 -3 8 0 18 7 23 7 4 10 3 6 -4 -5 -6 2 -6 18 1 22 11 16 13 -53 18 -62 5 -52 6 48 5 107 -1 131 -5 166 -23z m-1035 -70 c-12 -20 -14 -14 -5 12 4 9 9 14 11 11 3 -2 0 -13 -6 -23z m159 -17 c0 -3 -5 -8 -12 -12 -7 -4 -8 -3 -4 4 7 12 16 16 16 8z m-173 -38 c-3 -8 -6 -5 -6 6 -1 11 2 17 5 13 3 -3 4 -12 1 -19z m150 -5 c-4 -3 -7 0 -7 7 0 7 3 10 7 7 3 -4 3 -10 0 -14z m-160 -50 c-3 -10 -5 -4 -5 12 0 17 2 24 5 18 2 -7 2 -21 0 -30z m543 7 c-8 -5 -19 -10 -25 -10 -5 0 -3 5 5 10 8 5 20 10 25 10 6 0 3 -5 -5 -10z m229 -133 c112 -74 135 -225 48 -323 -49 -57 -99 -77 -178 -72 -56 3 -76 9 -110 33 -90 64 -118 195 -61 286 34 53 52 69 106 91 60 26 143 19 195 -15z m406 -767 c-3 -5 -16 -15 -28 -21 -19 -9 -19 -8 3 10 28 23 34 26 25 11z m-85 -50 c-8 -5 -19 -10 -25 -10 -5 0 -3 5 5 10 8 5 20 10 25 10 6 0 3 -5 -5 -10z m-70 -20 c-14 -4 -36 -8 -50 -8 -22 0 -22 1 5 8 17 4 39 8 50 8 16 0 15 -2 -5 -8z"/>
<path d="M1765 230 c-17 -11 -30 -25 -30 -32 0 -6 -7 -13 -15 -15 -13 -4 -13 -3 0 6 27 19 0 11 -50 -15 -27 -14 -53 -23 -58 -20 -5 3 -9 -1 -9 -9 0 -10 6 -11 26 -4 14 6 31 15 38 21 8 6 16 8 20 5 3 -4 -33 -25 -80 -47 -64 -30 -91 -38 -104 -32 -10 6 -58 15 -107 21 -50 7 -95 15 -100 19 -6 4 -25 7 -41 8 -17 1 -89 13 -160 27 -262 53 -291 58 -370 64 -44 3 -77 3 -74 -1 5 -5 169 -42 324 -72 39 -7 153 -31 255 -53 102 -23 203 -43 225 -47 22 -3 42 -7 45 -9 4 -2 29 -7 56 -10 27 -4 56 -8 65 -11 8 -2 36 0 62 5 26 4 47 5 47 0 0 -4 13 -4 29 1 16 4 32 6 35 2 3 -3 6 38 6 91 0 53 -3 97 -6 97 -3 0 -15 -5 -27 -11 -21 -10 -21 -9 -3 5 10 8 24 17 30 19 6 2 9 7 6 10 -3 3 -19 -3 -35 -13z"/>
<path d="M1513 93 c4 -3 10 -3 14 0 3 4 0 7 -7 7 -7 0 -10 -3 -7 -7z"/>
</g>
<g id="layer116" fill="#af34ad" stroke="none">
<path d="M0 1536 c0 -227 2 -267 16 -280 8 -9 20 -16 25 -16 6 0 8 -4 4 -9 -3 -5 20 -22 51 -37 31 -15 62 -33 69 -40 7 -7 24 -16 39 -20 21 -5 26 -3 27 12 0 17 1 17 9 -2 4 -12 7 -126 5 -255 -2 -129 0 -265 6 -304 24 -172 130 -291 289 -324 30 -6 174 -13 320 -16 146 -3 276 -5 290 -6 l25 -1 -25 -8 c-21 -7 -22 -8 -5 -10 11 -1 29 -3 40 -6 115 -25 483 -2 583 36 l32 12 0 174 c0 164 -1 173 -18 159 -64 -53 -97 -75 -112 -75 -10 0 -42 -16 -71 -35 -62 -40 -60 -39 -100 -85 l-30 -35 25 36 c14 20 26 42 26 50 0 8 4 19 8 25 27 30 34 128 30 454 -3 318 -5 338 -26 390 -55 138 -159 214 -332 244 -14 2 0 4 30 3 l54 -2 19 50 c11 28 26 66 33 85 7 19 15 49 16 65 l3 30 -677 3 -678 2 0 -264z m1306 -143 c52 -27 99 -81 115 -130 17 -55 24 -576 9 -672 -22 -134 -79 -195 -205 -218 -91 -17 -564 -14 -649 3 -103 22 -151 67 -186 174 -12 36 -15 108 -15 345 1 186 5 309 11 325 8 18 10 5 6 -57 -3 -59 -1 -82 9 -88 7 -5 54 -9 106 -9 78 -1 94 2 98 15 7 21 94 103 126 118 l24 12 -25 -18 c-105 -76 -151 -157 -158 -278 -5 -103 19 -173 86 -244 69 -73 145 -106 247 -106 97 0 169 29 235 95 67 67 95 138 95 240 0 73 -4 93 -28 142 -32 65 -104 135 -174 168 -39 19 -65 23 -138 23 -79 1 -84 2 -45 9 25 5 59 7 76 4 18 -2 37 1 44 7 10 9 11 9 5 -2 -5 -9 -3 -12 6 -9 8 3 13 10 12 16 -1 5 4 16 12 22 8 7 15 10 15 6 0 -3 19 15 41 39 23 25 45 42 50 39 5 -3 6 1 3 9 -3 8 0 18 7 23 7 4 10 3 6 -4 -5 -6 2 -6 18 1 22 11 16 13 -53 18 -62 5 -52 6 48 5 107 -1 131 -5 166 -23z m-1035 -70 c-12 -20 -14 -14 -5 12 4 9 9 14 11 11 3 -2 0 -13 -6 -23z m159 -17 c0 -3 -5 -8 -12 -12 -7 -4 -8 -3 -4 4 7 12 16 16 16 8z m-173 -38 c-3 -8 -6 -5 -6 6 -1 11 2 17 5 13 3 -3 4 -12 1 -19z m150 -5 c-4 -3 -7 0 -7 7 0 7 3 10 7 7 3 -4 3 -10 0 -14z m-160 -50 c-3 -10 -5 -4 -5 12 0 17 2 24 5 18 2 -7 2 -21 0 -30z m543 7 c-8 -5 -19 -10 -25 -10 -5 0 -3 5 5 10 8 5 20 10 25 10 6 0 3 -5 -5 -10z m229 -133 c112 -74 135 -225 48 -323 -49 -57 -99 -77 -178 -72 -56 3 -76 9 -110 33 -90 64 -118 195 -61 286 34 53 52 69 106 91 60 26 143 19 195 -15z m406 -767 c-3 -5 -16 -15 -28 -21 -19 -9 -19 -8 3 10 28 23 34 26 25 11z m-85 -50 c-8 -5 -19 -10 -25 -10 -5 0 -3 5 5 10 8 5 20 10 25 10 6 0 3 -5 -5 -10z m-70 -20 c-14 -4 -36 -8 -50 -8 -22 0 -22 1 5 8 17 4 39 8 50 8 16 0 15 -2 -5 -8z"/>
</g>
<g id="layer117" fill="#5071d1" stroke="none">
<path d="M0 86 l0 -86 607 0 c333 0 604 2 602 4 -12 13 -366 94 -534 122 -174 30 -222 34 -447 40 l-228 7 0 -87z"/>
</g>
<g id="layer118" fill="#f37233" stroke="none">
<path d="M0 1536 c0 -227 2 -267 16 -280 8 -9 20 -16 25 -16 6 0 8 -4 4 -9 -3 -5 20 -22 51 -37 31 -15 62 -33 69 -40 7 -7 24 -16 39 -20 21 -5 26 -3 27 12 0 17 1 17 9 -2 4 -12 7 -126 5 -254 -5 -338 14 -429 109 -528 49 -52 111 -86 186 -101 30 -6 179 -14 330 -16 334 -6 404 1 519 58 46 23 116 114 142 184 24 67 24 72 24 423 0 345 -1 357 -22 410 -56 138 -160 214 -333 244 -14 2 0 4 30 3 l54 -2 19 50 c11 28 26 66 33 85 7 19 15 49 16 65 l3 30 -677 3 -678 2 0 -264z m1306 -143 c52 -27 99 -81 115 -130 16 -51 24 -573 11 -672 -19 -134 -80 -196 -216 -220 -96 -17 -555 -13 -642 5 -77 16 -124 49 -160 111 -21 35 -28 65 -36 155 -11 129 -5 541 9 578 7 17 9 0 5 -57 -3 -59 -1 -82 9 -88 7 -5 54 -9 106 -9 78 -1 94 2 98 15 7 21 94 103 126 118 l24 12 -25 -18 c-105 -76 -151 -157 -158 -278 -5 -103 19 -173 86 -244 69 -73 145 -106 247 -106 97 0 169 29 235 95 67 67 95 138 95 240 0 73 -4 93 -28 142 -32 65 -104 135 -174 168 -39 19 -65 23 -138 23 -79 1 -84 2 -45 9 25 5 59 7 76 4 18 -2 37 1 44 7 10 9 11 9 5 -2 -5 -9 -3 -12 6 -9 8 3 13 10 12 16 -1 5 4 16 12 22 8 7 15 10 15 6 0 -3 19 15 41 39 23 25 45 42 50 39 5 -3 6 1 3 9 -3 8 0 18 7 23 7 4 10 3 6 -4 -5 -6 2 -6 18 1 22 11 16 13 -53 18 -62 5 -52 6 48 5 107 -1 131 -5 166 -23z m-1035 -70 c-12 -20 -14 -14 -5 12 4 9 9 14 11 11 3 -2 0 -13 -6 -23z m159 -17 c0 -3 -5 -8 -12 -12 -7 -4 -8 -3 -4 4 7 12 16 16 16 8z m-173 -38 c-3 -8 -6 -5 -6 6 -1 11 2 17 5 13 3 -3 4 -12 1 -19z m150 -5 c-4 -3 -7 0 -7 7 0 7 3 10 7 7 3 -4 3 -10 0 -14z m-160 -50 c-3 -10 -5 -4 -5 12 0 17 2 24 5 18 2 -7 2 -21 0 -30z m543 7 c-8 -5 -19 -10 -25 -10 -5 0 -3 5 5 10 8 5 20 10 25 10 6 0 3 -5 -5 -10z m229 -133 c112 -74 135 -225 48 -323 -49 -57 -99 -77 -178 -72 -56 3 -76 9 -110 33 -90 64 -118 195 -61 286 34 53 52 69 106 91 60 26 143 19 195 -15z"/>
<path d="M1064 1318 l-29 -33 33 29 c30 28 37 36 29 36 -2 0 -16 -15 -33 -32z"/>
<path d="M1005 1270 c-3 -5 -1 -10 4 -10 6 0 11 5 11 10 0 6 -2 10 -4 10 -3 0 -8 -4 -11 -10z"/>
</g>
<g id="layer119" fill="#9844bd" stroke="none">
<path d="M2 1619 c3 -170 4 -183 23 -193 11 -6 39 -23 63 -39 45 -28 98 -53 143 -67 22 -6 29 -4 38 14 10 18 11 18 5 1 -19 -58 -26 -146 -29 -400 -4 -390 11 -471 109 -573 49 -52 111 -86 186 -101 30 -6 179 -14 330 -16 334 -6 404 1 519 58 46 23 116 114 142 184 24 67 24 72 24 423 0 345 -1 357 -22 410 -32 78 -75 133 -136 172 -67 44 -147 68 -228 69 -53 0 -60 2 -39 10 26 10 114 112 127 145 3 11 18 34 31 52 l24 32 -656 0 -656 0 2 -181z m1174 -198 c104 -10 155 -32 202 -85 50 -57 55 -87 59 -391 5 -323 -2 -406 -44 -472 -60 -97 -141 -115 -499 -112 -355 2 -418 19 -480 126 -35 59 -47 206 -41 488 6 225 16 295 52 340 16 20 16 20 6 -2 -6 -12 -11 -23 -11 -25 0 -2 46 -2 102 -1 68 1 120 7 153 19 28 9 62 18 77 20 26 3 193 83 175 84 -5 0 -5 5 -2 10 8 12 128 13 251 1z"/>
<path d="M1765 230 c-17 -11 -30 -25 -30 -32 0 -6 -7 -13 -15 -15 -13 -4 -13 -3 0 6 27 19 0 11 -50 -15 -27 -14 -53 -23 -58 -20 -5 3 -9 -1 -9 -9 0 -10 6 -11 26 -4 14 6 31 15 38 21 8 6 16 8 20 5 3 -4 -27 -22 -66 -41 -74 -35 -78 -36 -198 -22 -45 5 -43 4 22 -15 39 -11 80 -21 93 -22 12 -1 22 -4 22 -7 0 -10 118 -16 205 -10 l35 2 0 84 c0 46 -3 84 -6 84 -3 0 -15 -5 -27 -11 -21 -10 -21 -9 -3 5 10 8 24 17 30 19 6 2 9 7 6 10 -3 3 -19 -3 -35 -13z m-238 -147 c-4 -3 -10 -3 -14 0 -3 4 0 7 7 7 7 0 10 -3 7 -7z"/>
<path d="M1275 130 c3 -5 8 -10 11 -10 2 0 4 5 4 10 0 6 -5 10 -11 10 -5 0 -7 -4 -4 -10z"/>
</g>
<g id="layer120" fill="#4584d7" stroke="none">
<path d="M5 132 c-3 -3 -5 -34 -5 -69 l0 -63 532 0 c292 0 529 2 527 4 -11 12 -292 66 -494 95 -147 22 -547 45 -560 33z"/>
</g>
<g id="layer121" fill="#3592e0" stroke="none">
<path d="M0 46 l0 -46 428 1 427 1 -85 18 c-163 35 -327 53 -622 66 l-148 7 0 -47z"/>
</g>
<g id="layer122" fill="#f78d33" stroke="none">
<path d="M2 1619 c3 -170 4 -183 23 -193 11 -6 39 -23 63 -39 45 -28 98 -53 143 -67 22 -6 29 -4 38 14 10 18 11 18 5 1 -32 -97 -42 -661 -15 -790 33 -152 135 -255 281 -283 83 -16 458 -25 605 -13 170 12 230 34 305 110 42 44 61 73 80 126 25 70 25 72 25 425 0 345 -1 357 -22 410 -32 78 -75 133 -136 172 -67 44 -147 68 -228 69 -53 0 -60 2 -39 10 26 10 114 112 127 145 3 11 18 34 31 52 l24 32 -656 0 -656 0 2 -181z m1174 -198 c104 -10 155 -32 202 -85 54 -61 57 -89 57 -452 l0 -330 -30 -59 c-40 -78 -93 -112 -196 -127 -43 -6 -193 -8 -359 -6 -310 5 -331 9 -393 66 -74 70 -92 187 -84 547 6 225 16 295 52 340 16 20 16 20 6 -2 -6 -12 -11 -23 -11 -25 0 -2 46 -2 102 -1 68 1 120 7 153 19 28 9 62 18 77 20 26 3 193 83 175 84 -5 0 -5 5 -2 10 8 12 128 13 251 1z"/>
</g>
<g id="layer123" fill="#faa02e" stroke="none">
<path d="M0 1700 c0 -87 2 -102 18 -107 15 -6 88 -59 102 -74 14 -15 87 -53 98 -51 6 2 12 -1 12 -6 0 -5 23 -15 50 -22 28 -8 47 -16 43 -19 -8 -6 -31 -51 -51 -101 -21 -52 -29 -183 -28 -445 3 -352 16 -416 110 -513 49 -53 112 -86 186 -100 83 -16 458 -25 605 -13 170 12 230 34 305 110 42 44 61 73 80 126 25 70 25 72 25 425 0 345 -1 357 -22 410 -32 78 -75 133 -136 172 -81 53 -145 68 -293 69 -71 1 -120 3 -109 5 47 10 95 28 95 36 0 4 5 8 11 8 21 0 158 117 191 163 l19 27 -655 0 -656 0 0 -100z m1176 -279 c104 -10 155 -32 202 -85 54 -61 57 -89 57 -452 l0 -330 -30 -59 c-40 -78 -93 -112 -196 -127 -43 -6 -193 -8 -359 -6 -310 5 -331 9 -393 66 -50 47 -68 96 -79 216 -14 161 -4 537 17 604 16 54 79 137 96 126 5 -3 9 -1 9 5 0 5 8 8 18 6 9 -1 21 0 27 3 5 3 21 7 35 8 14 2 61 8 105 14 44 6 94 12 110 14 64 7 295 5 381 -3z"/>
</g>
<g id="layer124" fill="#f89a51" stroke="none">
<path d="M0 1700 c0 -100 0 -101 28 -111 15 -6 28 -10 30 -10 1 1 15 -5 31 -13 16 -9 31 -13 34 -10 3 3 15 0 27 -6 12 -7 20 -8 16 -2 -3 5 25 -3 62 -18 96 -39 144 -46 179 -25 23 14 24 14 8 1 -106 -85 -146 -155 -163 -286 -14 -110 -9 -601 7 -675 33 -152 135 -255 281 -283 83 -16 458 -25 605 -13 170 12 230 34 305 110 42 44 61 73 80 126 25 70 25 72 25 425 0 345 -1 357 -22 410 -32 78 -75 133 -136 172 -89 58 -140 68 -358 70 -168 1 -181 2 -94 8 103 7 145 16 145 31 0 5 5 9 11 9 21 0 158 117 191 163 l19 27 -655 0 -656 0 0 -100z m547 -147 c-4 -3 -10 -3 -14 0 -3 4 0 7 7 7 7 0 10 -3 7 -7z m-30 -10 c-4 -3 -10 -3 -14 0 -3 4 0 7 7 7 7 0 10 -3 7 -7z m-52 -13 c-3 -5 -12 -10 -18 -10 -7 0 -6 4 3 10 19 12 23 12 15 0z m711 -109 c104 -10 155 -32 202 -85 54 -61 57 -89 57 -452 l0 -330 -30 -59 c-40 -78 -93 -112 -196 -127 -43 -6 -193 -8 -359 -6 -310 5 -331 9 -393 66 -74 70 -92 187 -84 547 6 247 16 301 70 362 52 60 103 76 252 83 205 10 382 10 481 1z"/>
<path d="M835 1229 c-92 -18 -186 -92 -233 -184 -37 -72 -42 -188 -12 -267 28 -75 98 -149 175 -185 84 -39 194 -40 276 -2 72 34 134 96 168 168 22 47 26 70 26 141 0 73 -4 93 -28 142 -32 64 -104 135 -170 166 -49 23 -143 33 -202 21z m184 -142 c112 -74 135 -225 48 -323 -49 -57 -99 -77 -178 -72 -56 3 -76 9 -110 33 -90 64 -118 195 -61 286 34 53 52 69 106 91 60 26 143 19 195 -15z"/>
</g>
<g id="layer125" fill="#fbb352" stroke="none">
<path d="M0 1743 c0 -57 1 -59 49 -100 28 -24 53 -43 56 -43 3 0 21 -11 39 -25 39 -30 138 -70 195 -80 29 -5 47 -2 68 10 23 14 25 14 8 1 -88 -71 -129 -135 -154 -243 -18 -75 -20 -638 -2 -718 34 -153 135 -255 281 -283 83 -16 458 -25 605 -13 170 12 230 34 305 110 42 44 61 73 80 126 25 70 25 72 25 420 0 311 -2 356 -18 401 -39 111 -108 183 -217 226 -48 19 -83 22 -265 28 -116 3 -191 7 -168 8 60 3 154 84 256 220 8 9 -107 12 -567 12 l-576 0 0 -57z m547 -190 c-4 -3 -10 -3 -14 0 -3 4 0 7 7 7 7 0 10 -3 7 -7z m-30 -10 c-4 -3 -10 -3 -14 0 -3 4 0 7 7 7 7 0 10 -3 7 -7z m-52 -13 c-3 -5 -12 -10 -18 -10 -7 0 -6 4 3 10 19 12 23 12 15 0z m711 -109 c104 -10 155 -32 202 -85 54 -61 57 -89 57 -452 l0 -330 -30 -59 c-40 -78 -93 -112 -196 -127 -43 -6 -193 -8 -359 -6 -244 4 -291 7 -325 22 -94 42 -133 108 -146 245 -11 124 -11 409 0 534 12 127 44 182 129 224 51 25 72 29 187 34 210 9 383 9 481 0z"/>
</g>
<g id="layer126" fill="#fdc35d" stroke="none">
<path d="M20 1775 c64 -68 246 -165 370 -196 64 -16 220 -15 312 1 108 20 235 87 338 179 l45 40 -544 1 -544 0 23 -25z"/>
<path d="M513 1545 c-50 -16 -139 -72 -175 -111 -31 -33 -60 -97 -77 -171 -18 -75 -20 -638 -2 -718 34 -153 135 -255 281 -283 83 -16 458 -25 605 -13 170 12 230 34 305 110 42 44 61 73 80 126 25 70 25 72 25 420 0 311 -2 356 -18 401 -39 111 -107 182 -217 226 -53 22 -69 23 -410 25 -275 1 -364 -1 -397 -12z m663 -124 c104 -10 155 -32 202 -85 54 -61 57 -89 57 -452 l0 -330 -30 -59 c-40 -78 -93 -112 -196 -127 -43 -6 -193 -8 -359 -6 -310 5 -331 9 -393 66 -70 65 -86 154 -86 467 0 233 11 349 39 403 22 42 82 92 130 107 62 19 491 30 636 16z"/>
</g>
<g id="layer127" fill="#fdce6f" stroke="none">
<path d="M110 1780 c44 -36 182 -98 265 -120 90 -24 197 -27 295 -10 36 6 72 12 80 14 35 5 158 67 214 108 l39 28 -459 0 -459 0 25 -20z"/>
<path d="M519 1546 c-62 -18 -149 -75 -188 -124 -60 -76 -73 -134 -83 -357 -9 -215 -4 -436 14 -525 28 -145 133 -250 278 -278 83 -16 458 -25 605 -13 170 12 230 34 305 110 42 44 61 73 80 126 25 70 25 72 25 420 0 311 -2 356 -18 401 -39 111 -107 182 -217 226 -53 22 -69 23 -405 25 -262 1 -362 -1 -396 -11z m657 -125 c104 -10 155 -32 202 -85 54 -61 57 -89 57 -452 l0 -330 -30 -59 c-40 -78 -93 -112 -196 -127 -43 -6 -193 -8 -359 -6 -310 5 -331 9 -393 66 -70 65 -86 154 -86 467 0 220 12 354 35 397 36 64 53 79 139 114 43 18 490 28 631 15z"/>
</g>
<g id="layer128" fill="#fffefe" stroke="none">
<path d="M550 1550 c-72 -15 -169 -70 -212 -121 -66 -78 -80 -135 -90 -364 -9 -215 -4 -436 14 -525 28 -145 133 -250 278 -278 83 -16 458 -25 605 -13 170 12 230 34 305 110 42 44 61 73 80 126 25 70 25 72 25 420 0 311 -2 356 -18 401 -39 111 -107 182 -217 226 -53 21 -70 23 -390 24 -184 2 -355 -2 -380 -6z m626 -129 c104 -10 155 -32 202 -85 54 -61 57 -89 57 -452 l0 -330 -30 -59 c-40 -78 -93 -112 -196 -127 -43 -6 -193 -8 -359 -6 -310 5 -331 9 -393 66 -70 65 -86 154 -86 467 0 214 12 352 34 396 42 83 104 119 220 129 118 10 446 11 551 1z"/>
<path d="M853 1228 c-107 -16 -200 -84 -251 -183 -37 -72 -42 -188 -12 -267 28 -75 98 -149 175 -185 84 -39 194 -40 276 -2 72 34 134 96 168 168 22 47 26 70 26 141 0 73 -4 93 -28 141 -65 134 -208 209 -354 187z m166 -141 c112 -74 135 -225 48 -323 -92 -106 -262 -99 -342 15 -40 56 -48 157 -17 217 44 85 114 126 208 121 47 -2 72 -9 103 -30z"/>
<path d="M1208 616 c-48 -36 -40 -108 14 -134 77 -37 147 61 88 124 -26 27 -74 32 -102 10z"/>
</g>


</svg>