<!DOCTYPE svg PUBLIC "-//W3C//DTD SVG 20010904//EN" "http://www.w3.org/TR/2001/REC-SVG-20010904/DTD/svg10.dtd">
<svg version="1.0" xmlns="http://www.w3.org/2000/svg" width="400px" height="400px" viewBox="0 0 4000 4000" preserveAspectRatio="xMidYMid meet">
<g id="layer101" fill="#010101" stroke="none">
 <path d="M0 2000 l0 -2000 2000 0 2000 0 0 2000 0 2000 -2000 0 -2000 0 0 -2000z"/>
 </g>
<g id="layer102" fill="#ffffff" stroke="none">
 <path d="M0 2000 l0 -2000 2000 0 2000 0 0 2000 0 2000 -2000 0 -2000 0 0 -2000z m3401 1183 c40 -13 69 -32 109 -73 96 -95 90 -20 90 -1110 0 -1090 6 -1015 -90 -1110 -97 -98 32 -90 -1510 -90 -1542 0 -1413 -8 -1510 90 -96 95 -90 20 -90 1110 0 1090 -6 1015 90 1110 95 96 -35 89 1506 89 1249 1 1356 0 1405 -16z"/>
 <path d="M665 2991 c-11 -5 -29 -19 -40 -31 -20 -22 -20 -38 -23 -919 l-2 -896 678 678 677 677 45 0 45 0 677 -677 678 -678 -2 897 -3 898 -28 27 -27 28 -1328 2 c-730 1 -1336 -2 -1347 -6z"/>
 <path d="M1370 1625 l-625 -625 1255 0 1255 0 -625 625 c-344 344 -627 625 -630 625 -3 0 -286 -281 -630 -625z"/>
 </g>

</svg>