<!DOCTYPE svg PUBLIC "-//W3C//DTD SVG 20010904//EN" "http://www.w3.org/TR/2001/REC-SVG-20010904/DTD/svg10.dtd">
<svg version="1.0" xmlns="http://www.w3.org/2000/svg" width="360px" height="360px" viewBox="0 0 3600 3600" preserveAspectRatio="xMidYMid meet">
<g id="layer101" fill="#00abec" stroke="none">
 <path d="M0 1800 l0 -1800 1800 0 1800 0 0 1800 0 1800 -1800 0 -1800 0 0 -1800z"/>
 </g>
<g id="layer102" fill="#ffffff" stroke="none">
 <path d="M0 1800 l0 -1800 1800 0 1800 0 0 1800 0 1800 -1800 0 -1800 0 0 -1800z m1477 1519 c238 -31 412 -84 618 -186 415 -206 738 -572 914 -1036 87 -228 131 -481 131 -750 0 -8 38 -46 84 -85 80 -68 187 -186 228 -251 l19 -30 -82 30 c-88 32 -230 69 -264 69 -17 -1 -16 -4 10 -23 64 -47 117 -103 159 -166 40 -62 88 -162 81 -169 -1 -2 -39 15 -84 38 -100 50 -164 74 -261 99 l-74 19 -48 -42 c-70 -60 -160 -112 -241 -138 -62 -20 -92 -23 -212 -22 -125 0 -148 3 -213 26 -106 38 -176 83 -257 163 -80 80 -125 151 -163 257 -24 67 -27 86 -27 220 l0 148 -28 0 c-38 0 -219 -28 -297 -46 -243 -55 -519 -186 -725 -342 -87 -67 -223 -194 -275 -257 -25 -30 -48 -55 -51 -55 -10 0 -57 118 -74 185 -20 78 -19 232 1 314 18 71 70 184 111 241 14 19 55 62 90 96 l64 61 -58 -9 c-68 -10 -143 -33 -197 -60 l-39 -20 6 70 c26 275 206 503 467 588 l55 18 -40 9 c-22 4 -86 7 -143 5 -73 -2 -102 0 -102 9 0 6 19 49 43 95 54 106 170 225 274 281 74 39 202 77 260 77 18 0 33 3 33 8 0 11 -137 97 -228 142 -185 92 -367 132 -598 134 l-151 1 31 19 c206 126 481 226 718 260 113 17 428 20 535 5z"/>
 </g>

</svg>